<?xml version="1.0" encoding="utf-8"?>
<!-- Generator: Adobe Illustrator 17.0.0, SVG Export Plug-In . SVG Version: 6.00 Build 0)  -->
<!DOCTYPE svg PUBLIC "-//W3C//DTD SVG 1.1//EN" "http://www.w3.org/Graphics/SVG/1.1/DTD/svg11.dtd">
<svg version="1.1" id="Layer_1" xmlns="http://www.w3.org/2000/svg" xmlns:xlink="http://www.w3.org/1999/xlink" x="0px" y="0px"
	 width="90px" height="90px" viewBox="0 0 90 90" enable-background="new 0 0 90 90" xml:space="preserve">
<g>
	<g>
		
			<linearGradient id="SVGID_1_" gradientUnits="userSpaceOnUse" x1="278.084" y1="-308.039" x2="278.084" y2="-308.039" gradientTransform="matrix(1 0 0 -1 -261 -260)">
			<stop  offset="0" style="stop-color:#ED003E"/>
			<stop  offset="1" style="stop-color:#FF3C00"/>
		</linearGradient>
		<path fill="url(#SVGID_1_)" d="M17.084,48.039L17.084,48.039z"/>
		<g>
			<g>
				
					<linearGradient id="SVGID_2_" gradientUnits="userSpaceOnUse" x1="276.6874" y1="-349.9901" x2="324.6189" y2="-260.0181" gradientTransform="matrix(1 0 0 -1 -261 -260)">
					<stop  offset="0" style="stop-color:#ED003E"/>
					<stop  offset="1" style="stop-color:#FF3C00"/>
				</linearGradient>
				<path fill="url(#SVGID_2_)" d="M59.134,49.99c-0.081,0.89-0.389,1.62-1.258,1.62c-1.033-0.001-1.029-0.962-0.953-1.702
					c0.122-1.192,0.088-2.389,0.096-3.587C57.039,43.156,57,39.989,57,36.823c0-4.878,0-9.756,0-14.634c0-1.044,0-2.088,0-3.132
					C57,18.576,56.234,18,55.753,18H28.767C28.286,18,28,18.576,28,19.057v51.832C28,71.37,28.286,72,28.767,72h23.728
					c0.589,0,1.065,0.411,1.065,1s-0.476,1-1.065,1H28.643C26.627,74,25,72.705,25,70.694V18.927C25,16.917,26.627,16,28.643,16
					h26.91C57.569,16,59,16.917,59,18.927c0,3.041-0.004,6.082-0.001,9.123c0.005,5.293,0.001,10.585-0.005,15.878
					c-0.001,1.067,0.017,2.134,0.018,3.201C59.012,47.699,59.228,48.953,59.134,49.99z"/>
			</g>
		</g>
		<g>
			
				<linearGradient id="SVGID_3_" gradientUnits="userSpaceOnUse" x1="293.2699" y1="-359.1676" x2="341.6328" y2="-268.3858" gradientTransform="matrix(1 0 0 -1 -261 -260)">
				<stop  offset="0" style="stop-color:#ED003E"/>
				<stop  offset="1" style="stop-color:#FF3C00"/>
			</linearGradient>
			<path fill="url(#SVGID_3_)" d="M42.743,82.894c-1.867,0-3.386-1.519-3.386-3.386c0-1.867,1.519-3.386,3.386-3.386
				s3.386,1.519,3.386,3.386C46.13,81.375,44.611,82.894,42.743,82.894z M42.743,78.38c-0.622,0-1.127,0.506-1.127,1.127
				c0,0.622,0.506,1.127,1.127,1.127c0.622,0,1.127-0.506,1.127-1.127C43.871,78.886,43.365,78.38,42.743,78.38z"/>
		</g>
		<g>
			<g>
				<g>
					
						<linearGradient id="SVGID_4_" gradientUnits="userSpaceOnUse" x1="266.1988" y1="-339.018" x2="311.5041" y2="-253.9756" gradientTransform="matrix(1 0 0 -1 -261 -260)">
						<stop  offset="0" style="stop-color:#ED003E"/>
						<stop  offset="1" style="stop-color:#FF3C00"/>
					</linearGradient>
					<path fill="url(#SVGID_4_)" d="M50,9c0,0.55-0.585,1-1.3,1H36.3C35.585,10,35,9.55,35,9s0.585-1,1.3-1h12.4
						C49.415,8,50,8.45,50,9z"/>
				</g>
			</g>
		</g>
		
			<linearGradient id="SVGID_5_" gradientUnits="userSpaceOnUse" x1="278.6727" y1="-351.7453" x2="327.308" y2="-260.4522" gradientTransform="matrix(1 0 0 -1 -261 -260)">
			<stop  offset="0" style="stop-color:#ED003E"/>
			<stop  offset="1" style="stop-color:#FF3C00"/>
		</linearGradient>
		<path fill="url(#SVGID_5_)" d="M66,8.179v42.289c0,0.696-0.426,1.423-1.199,1.346c-0.707-0.071-0.812-0.684-0.778-1.273
			C64.07,49.725,64,48.893,64,48.074c0-0.577,0-1.153,0-1.73c0-1.24,0-2.479,0-3.719c0-1.636,0-3.272,0-4.909
			c0-1.773,0-3.545,0-5.318c0-1.856,0-3.712,0-5.567c0-1.803,0-3.607,0-5.41c0-1.633,0-3.265,0-4.898c0-1.358,0-2.716,0-4.074
			c0-0.961,0-1.922,0-2.883c0-0.432,0-0.864,0-1.295c0-0.03,0-0.06,0-0.09C64,7.109,62.853,6,61.789,6H23.38
			C22.31,6,22,7.109,22,8.179V82.09c0,1.065,0.31,1.91,1.38,1.91h38.409C62.853,84,64,83.155,64,82.091v-2.524
			c0-0.746,0.249-1.351,0.995-1.351c0.751,0,1.005,0.605,1.005,1.351v2.524C66,84.582,64.28,87,61.789,87H23.38
			C20.889,87,19,84.582,19,82.091V8.179C19,5.688,20.889,3,23.38,3h38.409C64.28,3,66,5.688,66,8.179z"/>
	</g>
	<g>
		<g>
			<g>
				<g>
					
						<linearGradient id="SVGID_6_" gradientUnits="userSpaceOnUse" x1="306.005" y1="-360.7305" x2="349.0015" y2="-280.022" gradientTransform="matrix(1 0 0 -1 -261 -260)">
						<stop  offset="0" style="stop-color:#ED003E"/>
						<stop  offset="1" style="stop-color:#FF3C00"/>
					</linearGradient>
					<path fill="url(#SVGID_6_)" d="M65.516,71.295c-0.377,0.377-1.003,0.366-1.392-0.022l-4.888-4.888
						c-0.389-0.389-0.399-1.015-0.022-1.392s1.003-0.366,1.392,0.022l4.888,4.888C65.883,70.293,65.893,70.919,65.516,71.295z"/>
				</g>
			</g>
		</g>
		<g>
			<g>
				<g>
					
						<linearGradient id="SVGID_7_" gradientUnits="userSpaceOnUse" x1="309.1393" y1="-365.8257" x2="355.8499" y2="-278.1454" gradientTransform="matrix(1 0 0 -1 -261 -260)">
						<stop  offset="0" style="stop-color:#ED003E"/>
						<stop  offset="1" style="stop-color:#FF3C00"/>
					</linearGradient>
					<path fill="url(#SVGID_7_)" d="M64.189,71.295c-0.377-0.377-0.366-1.003,0.022-1.392l8.628-8.628
						c0.389-0.389,1.015-0.399,1.392-0.022s0.366,1.003-0.022,1.392l-8.628,8.628C65.192,71.662,64.566,71.672,64.189,71.295z"/>
				</g>
			</g>
		</g>
	</g>
</g>
</svg>
