<?xml version="1.0" encoding="utf-8"?>
<!-- Generator: Adobe Illustrator 17.0.0, SVG Export Plug-In . SVG Version: 6.00 Build 0)  -->
<!DOCTYPE svg PUBLIC "-//W3C//DTD SVG 1.1//EN" "http://www.w3.org/Graphics/SVG/1.1/DTD/svg11.dtd">
<svg version="1.1" id="Layer_1" xmlns="http://www.w3.org/2000/svg" xmlns:xlink="http://www.w3.org/1999/xlink" x="0px" y="0px"
	 width="90px" height="90px" viewBox="0 0 90 90" enable-background="new 0 0 90 90" xml:space="preserve">
<path fill="#FFFFFF" d="M0.625,47.603c0-1.734,0-3.468,0-5.202c0.071-0.624,0.143-1.247,0.212-1.871
	C1.9,30.977,5.548,22.55,11.987,15.405C18.823,7.82,27.293,3.084,37.37,1.3c1.67-0.296,3.363-0.464,5.045-0.69
	c1.734,0,3.468,0,5.202,0c1.485,0.186,2.979,0.321,4.454,0.568c9.271,1.55,17.351,5.538,24,12.182
	c9.974,9.966,14.363,22.079,13.088,36.106c-0.856,9.416-4.541,17.737-10.837,24.808c-8.362,9.39-18.884,14.449-31.441,15.061
	c-8.756,0.426-16.989-1.615-24.484-6.187C10.876,76.121,3.804,65.941,1.316,52.642C1.005,50.977,0.851,49.283,0.625,47.603z
	 M21.796,74.06c11.972,9.735,28.126,10.079,38.571,4.752c-0.984-6.891-5.917-24.36-7.542-26.71
	C41.669,55.437,29.752,63.835,21.796,74.06z M7.772,43.485c-0.203,9.657,2.67,18.119,8.827,25.556
	C25.709,58.1,36.697,49.973,50.256,45.409c-1.303-2.763-2.561-5.433-3.823-8.11C33.829,41.536,20.993,43.332,7.772,43.485z
	 M30.028,10.974c-9.11,2.95-20.746,16.9-21.113,25.366c11.598-0.256,22.967-1.871,34.045-5.433
	C41.38,27.337,32.272,13.316,30.028,10.974z M73.925,21.551c-6.152,5.62-13.132,9.837-20.712,13.138
	c1.323,2.899,2.603,5.734,3.93,8.545c0.084,0.178,0.561,0.295,0.821,0.249c7.56-1.337,15.11-1.311,22.657,0.094
	c0.518,0.096,1.044,0.148,1.611,0.226C81.878,35.411,79.121,28.072,73.925,21.551z M50.076,28.269
	c6.814-2.88,13.203-6.679,18.797-11.76C62.221,9.736,44.915,5.418,37.575,8.568C41.712,15.087,45.865,21.632,50.076,28.269z
	 M66.96,75.093c8.086-6.2,13.038-14.079,14.83-24.022c-7.245-1.622-14.451-1.982-21.825-0.725
	C63.003,58.444,65.337,66.58,66.96,75.093z"/>
</svg>
