<?xml version="1.0" encoding="utf-8"?>
<!-- Generator: Adobe Illustrator 17.0.0, SVG Export Plug-In . SVG Version: 6.00 Build 0)  -->
<!DOCTYPE svg PUBLIC "-//W3C//DTD SVG 1.1//EN" "http://www.w3.org/Graphics/SVG/1.1/DTD/svg11.dtd">
<svg version="1.1" id="Layer_1" xmlns="http://www.w3.org/2000/svg" xmlns:xlink="http://www.w3.org/1999/xlink" x="0px" y="0px"
	 width="90px" height="90px" viewBox="0 0 90 90" enable-background="new 0 0 90 90" xml:space="preserve">
<path fill="#FFFFFF" d="M89.583,45.26c0,22.169-16.18,40.558-37.376,44.003c0-0.057,0.001-0.113,0.001-0.17V58.769
	c-0.002-0.508-0.012-0.457,0.452-0.457c3.154-0.001,6.309,0,9.463,0c0.516,0,0.524,0.001,0.599-0.486
	c0.235-1.521,0.462-3.043,0.696-4.564c0.295-1.922,0.595-3.843,0.891-5.765c0.096-0.622,0.193-1.244,0.281-1.867
	c0.039-0.272,0.026-0.28-0.254-0.288c-0.196-0.005-0.392-0.001-0.589-0.001H52.77c-0.112,0-0.225-0.006-0.336,0
	c-0.16,0.009-0.234-0.059-0.226-0.22c0.004-0.084,0-0.168,0-0.252c0-2.692,0.004-5.384-0.002-8.075
	c-0.002-1.063,0.165-2.092,0.571-3.075c0.735-1.782,2.078-2.881,3.903-3.417c0.864-0.254,1.753-0.361,2.654-0.362
	c1.78-0.001,3.561,0,5.342,0c0.112,0,0.224,0,0.336-0.003c0.101-0.003,0.153-0.058,0.155-0.158c0.002-0.098,0.002-0.196,0.002-0.294
	c0-3.377,0.001-6.753,0.001-10.13c0-0.07-0.008-0.141,0-0.21c0.021-0.191-0.058-0.27-0.252-0.3
	c-1.051-0.162-2.105-0.298-3.162-0.422c-1.584-0.186-3.174-0.31-4.767-0.382c-2.871-0.129-5.71,0.037-8.46,0.976
	c-3.569,1.219-6.325,3.425-8.157,6.743c-0.936,1.695-1.517,3.517-1.854,5.419c-0.244,1.382-0.353,2.775-0.349,4.179
	c0.009,3.154,0.003,6.309,0.003,9.463c0,0.098-0.005,0.196,0.001,0.294c0.008,0.156-0.054,0.236-0.218,0.228
	c-0.112-0.006-0.224,0-0.336,0c-3.463,0-6.926,0-10.389,0c-0.523,0-0.471-0.039-0.471,0.478c-0.001,4.01-0.001,8.019,0,12.029
	c0,0.506-0.058,0.465,0.482,0.465c3.477,0.001,6.954,0,10.43,0.001c0.557,0,0.5-0.053,0.5,0.491
	c0.001,10.122,0.001,20.245,0.001,30.367c0,0.042,0,0.084,0,0.126c0,0.009,0,0.019,0,0.027C16.791,86.037,0.417,67.56,0.417,45.26
	C0.417,20.637,20.378,0.677,45,0.677S89.583,20.637,89.583,45.26z"/>
</svg>
