<?xml version="1.0" encoding="utf-8"?>
<!-- Generator: Adobe Illustrator 17.0.0, SVG Export Plug-In . SVG Version: 6.00 Build 0)  -->
<!DOCTYPE svg PUBLIC "-//W3C//DTD SVG 1.1//EN" "http://www.w3.org/Graphics/SVG/1.1/DTD/svg11.dtd">
<svg version="1.1" id="Layer_1" xmlns="http://www.w3.org/2000/svg" xmlns:xlink="http://www.w3.org/1999/xlink" x="0px" y="0px"
	 width="90px" height="90px" viewBox="0 0 90 90" enable-background="new 0 0 90 90" xml:space="preserve">
<path fill="#FFFFFF" d="M59.475,87.682c-0.793,0.264-1.466,0.312-2,0.158c-0.953-0.272-1.472-1.187-1.47-2.685
	c0.004-3.691,0.019-7.382,0.036-11.071c0.013-3.103-0.551-6.013-2.854-8.487c1.932-0.38,3.731-0.656,5.49-1.097
	c5.296-1.329,9.753-3.923,12.193-9.032c2.567-5.374,3.149-11.031,1.664-16.836c-0.576-2.244-1.727-4.221-3.233-5.973
	c-0.411-0.477-0.504-0.865-0.316-1.489c1.046-3.457,0.753-6.878-0.515-10.219c-0.127-0.331-0.694-0.688-1.065-0.696
	c-2.118-0.049-4.088,0.639-5.954,1.552c-1.637,0.799-3.185,1.78-4.798,2.63c-0.356,0.186-0.863,0.291-1.244,0.198
	c-6.96-1.696-13.91-1.698-20.873-0.008c-0.43,0.105-1.025-0.057-1.422-0.297c-2.888-1.765-5.813-3.419-9.215-3.995
	c-0.103-0.017-0.205-0.044-0.31-0.059c-1.774-0.253-1.955-0.15-2.468,1.538c-0.972,3.202-1.131,6.412-0.127,9.648
	c0.084,0.266,0.004,0.709-0.177,0.915c-3.98,4.585-4.752,9.985-3.904,15.733c0.3,2.031,0.787,4.083,1.527,5.994
	c2.248,5.807,6.853,8.886,12.668,10.39c1.793,0.464,3.632,0.747,5.568,1.137c-1.455,1.567-2.238,3.406-2.611,5.444
	c-0.042,0.23-0.382,0.481-0.639,0.58c-4.733,1.822-9.329,1.044-12.244-3.782c-1.373-2.278-3.265-3.961-5.956-4.501
	c-0.667-0.133-1.405-0.112-2.075,0.019c-0.936,0.186-1.076,0.711-0.449,1.413c0.302,0.335,0.648,0.66,1.034,0.89
	c2.405,1.434,3.932,3.592,4.961,6.113c1.639,4.016,4.803,5.853,8.907,6.169c2.044,0.156,4.121-0.116,6.294-0.2
	c0,2.704,0.076,5.547-0.03,8.382c-0.034,0.861-0.586,1.445-1.384,1.662c-0.544,0.148-1.2,0.122-1.881-0.103
	c-3.757-1.244-7.308-2.938-10.538-5.216C6.698,73.067-0.049,60.14,0.68,43.787c0.574-12.847,6.726-24.243,16.241-31.87
	c0.019-0.013,0.036-0.027,0.053-0.042c5.539-4.423,12.212-7.572,19.586-8.989c16.241-3.122,32.187,2.959,42.262,14.75
	c0.038,0.044,0.076,0.089,0.112,0.133c4.147,4.891,7.287,10.755,9.025,17.346C93.775,57.166,81.136,80.493,59.475,87.682z"/>
</svg>
