<?xml version="1.0" encoding="utf-8"?>
<!-- Generator: Adobe Illustrator 17.0.0, SVG Export Plug-In . SVG Version: 6.00 Build 0)  -->
<!DOCTYPE svg PUBLIC "-//W3C//DTD SVG 1.1//EN" "http://www.w3.org/Graphics/SVG/1.1/DTD/svg11.dtd">
<svg version="1.1" id="Layer_1" xmlns="http://www.w3.org/2000/svg" xmlns:xlink="http://www.w3.org/1999/xlink" x="0px" y="0px"
	 width="188.167px" height="53.167px" viewBox="0 0 188.167 53.167" enable-background="new 0 0 188.167 53.167"
	 xml:space="preserve">
<g>
	<path fill="#FFFFFF" d="M30.602,50.427H1.614V3.239h13.482V37.35h15.505V50.427z"/>
	<path fill="#FFFFFF" d="M43.341,48.237c-3.82-2.18-6.842-5.146-9.066-8.898c-2.225-3.752-3.337-7.921-3.337-12.505
		s1.112-8.752,3.337-12.505c2.225-3.752,5.246-6.718,9.066-8.898c3.819-2.179,8.022-3.27,12.606-3.27s8.785,1.09,12.605,3.27
		c3.819,2.181,6.843,5.146,9.067,8.898c2.225,3.753,3.336,7.921,3.336,12.505s-1.111,8.753-3.336,12.505
		c-2.225,3.753-5.248,6.719-9.067,8.898c-3.82,2.18-8.021,3.27-12.605,3.27S47.16,50.416,43.341,48.237z M61.879,36.81
		c1.753-0.987,3.123-2.359,4.112-4.111c0.988-1.753,1.483-3.708,1.483-5.865s-0.495-4.112-1.483-5.865
		c-0.989-1.753-2.359-3.123-4.112-4.112c-1.752-0.988-3.73-1.483-5.932-1.483c-2.203,0-4.18,0.495-5.933,1.483
		c-1.753,0.989-3.124,2.359-4.112,4.112c-0.988,1.752-1.482,3.708-1.482,5.865s0.494,4.112,1.482,5.865
		c0.988,1.752,2.359,3.124,4.112,4.111c1.753,0.989,3.729,1.483,5.933,1.483C58.148,38.293,60.127,37.799,61.879,36.81z"/>
	<path fill="#FFFFFF" d="M130.065,40.114c-1.955,3.551-4.719,6.337-8.292,8.358c-3.572,2.022-7.696,3.034-12.37,3.034
		c-4.854,0-9.19-1.079-13.01-3.236c-3.82-2.157-6.787-5.111-8.898-8.864c-2.113-3.752-3.169-7.921-3.169-12.505
		c0-4.628,1.067-8.831,3.202-12.606s5.066-6.741,8.798-8.898c3.729-2.157,7.909-3.236,12.538-3.236
		c4.404,0,8.437,0.989,12.101,2.966c3.662,1.978,6.549,4.651,8.662,8.022l-11.46,6.539c-0.854-1.303-2.067-2.348-3.641-3.135
		c-1.573-0.786-3.37-1.18-5.393-1.18c-3.37,0-6.101,1.079-8.19,3.236c-2.09,2.157-3.135,4.944-3.135,8.359
		c0,2.022,0.404,3.955,1.214,5.798c0.809,1.843,2.1,3.348,3.876,4.517c1.774,1.169,4.033,1.752,6.774,1.752
		c4.674,0,7.797-1.662,9.37-4.988h-10.044v-11.46h23.998v5.595C132.997,32.586,132.02,36.564,130.065,40.114z"/>
	<path fill="#FFFFFF" d="M148.771,48.237c-3.82-2.18-6.842-5.146-9.066-8.898c-2.225-3.752-3.337-7.921-3.337-12.505
		s1.112-8.752,3.337-12.505c2.225-3.752,5.246-6.718,9.066-8.898c3.819-2.179,8.022-3.27,12.606-3.27s8.785,1.09,12.605,3.27
		c3.819,2.181,6.843,5.146,9.067,8.898c2.225,3.753,3.336,7.921,3.336,12.505s-1.111,8.753-3.336,12.505
		c-2.225,3.753-5.248,6.719-9.067,8.898c-3.82,2.18-8.021,3.27-12.605,3.27S152.59,50.416,148.771,48.237z M167.309,36.81
		c1.753-0.987,3.123-2.359,4.112-4.111c0.988-1.753,1.483-3.708,1.483-5.865s-0.495-4.112-1.483-5.865
		c-0.989-1.753-2.359-3.123-4.112-4.112c-1.752-0.988-3.73-1.483-5.932-1.483c-2.203,0-4.18,0.495-5.933,1.483
		c-1.753,0.989-3.124,2.359-4.112,4.112c-0.988,1.752-1.482,3.708-1.482,5.865s0.494,4.112,1.482,5.865
		c0.988,1.752,2.359,3.124,4.112,4.111c1.753,0.989,3.729,1.483,5.933,1.483C163.578,38.293,165.557,37.799,167.309,36.81z"/>
</g>
</svg>
