<?xml version="1.0" encoding="utf-8"?>
<!-- Generator: Adobe Illustrator 17.0.0, SVG Export Plug-In . SVG Version: 6.00 Build 0)  -->
<!DOCTYPE svg PUBLIC "-//W3C//DTD SVG 1.1//EN" "http://www.w3.org/Graphics/SVG/1.1/DTD/svg11.dtd">
<svg version="1.1" id="Layer_1" xmlns="http://www.w3.org/2000/svg" xmlns:xlink="http://www.w3.org/1999/xlink" x="0px" y="0px"
	 width="90px" height="90px" viewBox="0 0 90 90" enable-background="new 0 0 90 90" xml:space="preserve">
<path fill="#FFFFFF" d="M44.465,76.066c-6.418-0.011-13.511-0.143-20.599-0.475c-3.834-0.18-7.663-0.426-11.47-0.956
	c-4.362-0.607-7.599-2.752-9.454-6.807c-0.792-1.73-1.04-3.608-1.288-5.47c-0.982-7.378-1.172-14.793-0.961-22.222
	c0.112-3.947,0.336-7.892,0.865-11.808c0.28-2.077,0.489-4.19,1.373-6.123c1.805-3.945,4.887-6.212,9.187-6.836
	c4.567-0.663,9.169-0.885,13.771-1.059c8.571-0.326,17.145-0.462,25.722-0.32c4.68,0.077,9.361,0.175,14.036,0.41
	c4.125,0.207,8.251,0.423,12.338,1.078c4.498,0.721,7.718,3.066,9.296,7.413c0.757,2.086,1.022,4.295,1.274,6.49
	c0.762,6.643,0.955,13.31,0.755,19.988c-0.142,4.751-0.401,9.498-1.184,14.197c-0.364,2.186-0.818,4.347-2.12,6.215
	c-1.977,2.836-4.724,4.369-8.117,4.852c-4.714,0.671-9.462,0.887-14.21,1.075C57.503,75.952,51.324,76.058,44.465,76.066z
	 M36.152,58.294c7.702-4.427,15.351-8.824,23.08-13.266c-7.719-4.455-15.383-8.879-23.08-13.321
	C36.152,40.607,36.152,49.41,36.152,58.294z"/>
</svg>
