<?xml version="1.0" encoding="utf-8"?>
<!-- Generator: Adobe Illustrator 17.0.0, SVG Export Plug-In . SVG Version: 6.00 Build 0)  -->
<!DOCTYPE svg PUBLIC "-//W3C//DTD SVG 1.1//EN" "http://www.w3.org/Graphics/SVG/1.1/DTD/svg11.dtd">
<svg version="1.1" id="Layer_1" xmlns="http://www.w3.org/2000/svg" xmlns:xlink="http://www.w3.org/1999/xlink" x="0px" y="0px"
	 width="1920px" height="753px" viewBox="0 162.5 1920 753" enable-background="new 0 162.5 1920 753" xml:space="preserve">
<g>
	
		<linearGradient id="SVGID_1_" gradientUnits="userSpaceOnUse" x1="259.9292" y1="-156.4405" x2="2247.3992" y2="562.4316" gradientTransform="matrix(1 0 0 -1 -261 730)">
		<stop  offset="0" style="stop-color:#ED003E"/>
		<stop  offset="1" style="stop-color:#FF3C00"/>
	</linearGradient>
	<path fill="url(#SVGID_1_)" d="M1918.5,885.5c0,16.569-13.431,30-30,30H30.5c-16.569,0-30-13.431-30-30v-693
		c0-16.569,13.431-30,30-30h1858c16.569,0,30,13.431,30,30V885.5z"/>
</g>
<path fill="#EBF2E9" d="M1053.652,606.178c-1.891,23.433-3.638,44.874-5.371,66.314c-0.26,3.263-0.462,6.54-0.736,9.803
	c-1.733,20.069-9.082,26.783-29.367,26.797c-20.748,0.014-41.51,0.072-62.257-0.029c-18.279-0.087-27.317-9.616-25.714-27.88
	c6.194-70.429,12.619-140.83,18.957-211.259c2.989-33.164,5.977-66.343,8.88-99.508c1.487-17.051,9.24-24.516,26.321-24.603
	c23.217-0.116,46.419-0.101,69.635-0.014c14.727,0.058,20.979,4.635,26.335,18.611c14.655,38.218,29.338,76.436,44.08,114.624
	c0.924,2.411,1.328,5.27,3.797,6.945c3.306-1.733,3.379-5.024,4.418-7.696c14.857-38.434,29.613-76.912,44.498-115.346
	c4.866-12.576,11.377-17.051,24.848-17.109c23.491-0.101,46.967-0.101,70.458,0c16.806,0.072,24.79,7.118,26.306,23.693
	c5.66,61.983,11.175,123.98,16.705,185.963c3.682,41.322,7.219,82.673,11.031,123.98c1.805,19.636-6.743,29.54-26.321,29.584
	c-21.571,0.058-43.141,0.072-64.726-0.014c-16.113-0.072-24.718-8.244-25.96-24.256c-1.819-23.404-3.638-46.808-5.559-70.213
	c-0.188-2.238,0.751-4.967-1.92-6.714c-3.191,1.545-3.176,4.909-4.115,7.566c-8.735,24.704-17.297,49.465-26.003,74.169
	c-4.375,12.446-11.262,17.311-24.545,17.398c-12.836,0.087-25.671,0.115-38.507-0.014c-12.345-0.115-19.39-4.88-23.549-16.503
	c-8.648-24.155-16.965-48.426-25.512-72.609C1058.562,614.451,1058.056,610.553,1053.652,606.178z M1116.068,488.233
	c-4.014-9.212-8.028-18.423-12.041-27.635c0.534-2.599-0.794-4.822-1.66-7.06c-9.139-23.924-18.25-47.862-27.591-71.714
	c-10.742-27.389-5.588-24.776-37.481-24.819c-16.229-0.014-32.471,0-49.335,0c1.877,3.696,4.635,4.433,6.959,5.515
	c10.424,4.808,20.387,10.424,29.815,16.936c31.071,21.47,55.775,48.512,72.205,82.774c-4.043,1.227-7.854,4.043-12.388,1.704
	c-23.549-46.765-60.958-77.98-109.066-97.169c-3.783-1.502-5.602-0.058-5.92,3.913c-0.809,9.789-1.357,19.621-2.743,29.338
	c-0.91,6.396,0.765,9.674,6.901,12.59c29.035,13.817,51.891,34.724,68.682,62.185c-2.671,2.584-6.541,2.05-9.573,3.696
	c-2.83-1.4-4.187-4.115-5.934-6.526c-14.77-20.372-33.15-36.5-55.659-47.877c-3.292-1.66-6.107-3.22-6.598,2.44
	c-1.964,22.74-3.985,45.495-5.992,68.235c-0.606,7.234-1.213,14.481-1.819,21.715c0.375,4.736-4.938,11.305,3.826,13.413
	c10.309,2.483,20.704,4.534,31.071,6.771c12.301,4.519,25.05,7.234,37.972,9.168c5.27,2.57,11.565,1.949,16.604,5.241
	c-0.188,3.537-0.404,7.075-0.534,10.612c-0.087,2.252-0.058,4.895,3.104,4.534c6.006-0.707,6.281,3.97,7.681,7.609
	c5.371,13.904,8.952,28.472,15.449,41.972c0.751,4.346,1.198,8.778,4.173,12.374c5.573,20.444,13.745,40.008,20.401,60.092
	c1.473,4.461,5.27,7.104,10.006,7.161c14.409,0.202,28.833,0.188,43.242,0.058c5.111-0.043,8.851-2.772,10.525-7.623
	c5.068-14.597,9.962-29.266,14.915-43.878c2.945-3.407,2.888-7.84,4.043-11.839c3.725-7.306,6.064-15.102,8.129-23
	c1.516-3.407,4.158-6.425,3.552-10.54c2.469-3.725,3.754-7.869,4.389-12.258c0.751-2.397,1.487-4.794,2.238-7.19
	c2.31-5.4,4.62-10.814,6.93-16.214c3.22,1.112,1.328-6.873,5.92-3.335c0.592,3.249,1.184,6.483,1.761,9.731
	c2.743,33.987,5.486,67.975,8.23,101.962c0.058,3.003,0.058,5.992,0.173,8.995c0.52,14.034,3.711,17.167,17.514,17.181
	c20.444,0.014,40.889,0.014,61.333-0.014c13.081-0.014,17.008-3.609,15.824-16.488c-2.541-27.36-5.385-54.692-7.075-82.124
	c-0.173-2.917-1.531-5.746-2.339-8.634c0.505-11.016-0.274-21.917-2.743-32.688c-0.202-6.988,0.303-14.034-1.675-20.878
	c0.332-10.396-1.559-20.618-2.353-30.941c-0.13-7.277,0.462-14.626-2.151-21.657c-0.375-10.684-0.751-21.383-3.119-31.879
	c0.419-6.93-0.606-13.716-1.964-20.473c0.866-5.313-0.101-10.482-1.198-15.651c-0.375-16.633-1.92-33.164-4.173-49.624
	c-0.938-6.873-6.093-9.313-12.46-9.327c-24.285-0.072-48.57,0-72.841-0.058c-6.945-0.014-11.132,3.451-13.456,9.775
	c-2.729,7.407-5.718,14.712-8.432,22.134c-7.205,19.665-15.867,38.781-21.946,58.864c-3.797,7.132-6.367,14.741-8.894,22.365
	c-2.815,2.974-2.801,7.089-4.274,10.612c-3.277,6.396-4.49,13.716-8.836,19.636C1128.962,496.347,1122.522,492.29,1116.068,488.233z
	"/>
<path fill="#E8EFE8" d="M340.768,483.93c-1.718-10.309-0.751-20.704-0.809-31.056c-0.144-26.768-0.072-53.522-0.029-80.291
	c0.029-18.481,8.042-26.725,26.234-26.812c21.845-0.101,43.704-0.116,65.549,0.014c16.777,0.101,25.223,8.518,25.296,25.267
	c0.116,30.854,0.188,61.723-0.087,92.577c-0.058,6.598,1.718,9.284,8.692,9.067c13.644-0.433,27.317-0.419,40.961,0.014
	c6.483,0.202,8.417-2.021,8.36-8.389c-0.26-30.306-0.13-60.626-0.115-90.931c0.014-19.26,8.23-27.606,27.274-27.649
	c20.762-0.058,41.524-0.043,62.272,0.014c18.322,0.058,25.122,5.761,28.371,23.549c0,13.817,0.029,27.721-0.043,41.611
	c-0.014,2.527,0.361,6.8-4.014,4.331c-9.471-5.328-7.724,1.964-8.36,6.829c-10.179-4.086-19.347-9.948-28.515-15.882
	c-4.043-2.628-4.692-4.808-0.895-8.013c9.038-7.623,16.171-17.716,28.14-21.484c2.151-0.679,1.458-2.556,1.761-4.057
	c2.613-13.124-13.861-18.957-24.271-13.803c0.736,2.556,2.83,4.072,4.808,5.342c5.602,3.566,4.028,6.151-0.375,9.529
	c-5.602,4.303-10.857,9.096-15.969,13.991c-8.071,7.724-7.941,7.797-16.229-0.087c-8.721-8.288-16.82-17.109-23.751-26.942
	c-3.465-4.938-8.432-4.721-12.186-2.021c-3.754,2.7,0.476,5.775,2.166,8.1c8.49,11.738,17.889,22.74,28.963,32.11
	c4.505,3.797,5.27,6.555,1.155,11.204c-6.512,7.349-12.229,15.521-16.387,24.357c-3.508,7.436-8.028,10.987-16.171,9.558
	c-5.357-2.209-5.963,0.982-6.006,5.14c-0.115,11.709-0.361,23.404-0.549,35.114l0.375-0.274c-25.007,0.101-49.999,0.13-75.006,0.39
	c-4.909,0.058-5.934-2.267-5.891-6.497c0.058-5.14-0.361-10.28-0.563-15.42c1.242-9.197,1.242-18.394,0.014-27.591
	c0.65-5.241,1.733-10.497-0.231-15.709c2.426-4.62,2.296-9.24,0-13.861c2.7-11.002,0.837-22.191,1.097-33.28
	c0.231-10.699-4.187-14.857-14.785-14.9c-21.527-0.087-43.055-0.087-64.582,0c-11.796,0.043-15.261,4.014-14.525,16.127
	c0,4.129,0,8.259,0,12.388c-0.578,7.32-0.78,14.64,0.101,21.96c0,3.812,0.014,7.623,0.014,11.435
	c-0.043,2.079-0.072,4.173-0.116,6.252c-0.65,3.812-0.866,7.609,0.072,11.421c0,19.679,0,39.373,0,59.052
	c-0.736,0.101-1.487,0.217-2.223,0.318C346.745,491.987,343.757,487.959,340.768,483.93z"/>
<path fill="#E5EDE9" d="M734.771,477.145c-1.53-4.808-1.141-9.789-0.837-14.64c0.375-5.992-1.66-8.244-7.869-8.085
	c-14.193,0.361-28.4,0.173-42.607,0.087c-16.127-0.087-24.992-8.75-25.079-24.689c-0.115-19.939-0.144-39.878,0-59.803
	c0.116-15.16,8.735-24.155,23.881-24.184c73.476-0.159,146.966-0.144,220.442-0.014c15.131,0.029,23.852,8.995,23.996,24.141
	c0.188,20.213,0.217,40.427-0.014,60.626c-0.144,14.9-9.255,23.751-24.242,23.91c-13.933,0.144-27.88,0.448-41.784-0.13
	c-7.768-0.318-9.587,2.541-9.558,9.861c0.231,71.83,0.144,143.645,0.13,215.475c0,22.004-7.522,29.454-29.555,29.454
	c-20.762,0-41.524,0.072-62.286-0.029c-16.517-0.087-25.469-8.851-25.498-25.238c-0.043-24.025,0.217-48.05,0.361-72.075
	c3.48,2.31,6.959,4.635,10.424,6.945c0.289,3.508,0.823,7.017,0.837,10.525c0.087,18.235-0.072,36.471,0.072,54.706
	c0.072,9.457,3.638,13.269,12.633,13.326c22.87,0.144,45.74,0.029,68.596,0.043c7.363,0,11.911-3.191,12.576-10.857
	c0.13-0.505,0.375-1.04,0.375-1.559c-0.029-80.247-0.072-160.509-0.116-240.756c0.433-0.332,0.606-0.78,0.534-1.328
	c20.156-0.837,40.311-0.635,60.481-0.116c6.266,0.173,11.998-1.155,13.846-8.504c1.949-22.264,0.809-44.556,0.534-66.834
	c-0.087-6.974-5.703-10.28-12.503-10.266c-30.493,0.029-61.001,0.202-91.495,0.318c-43.055-0.13-86.095-0.332-129.149-0.332
	c-7.335,0-11.883,4.144-11.955,11.652c-0.202,20.979-0.159,41.957,0,62.936c0.043,5.847,3.046,10.482,9.125,10.612
	c18.481,0.39,36.991,1.66,55.442-0.664c10.598-0.549,12.2,5.689,11.103,14.337c-0.375,2.902,0.159,5.92,0.289,8.879
	C746.985,473.304,739.954,474.372,734.771,477.145z"/>
<path fill="#E1EEEA" d="M632.809,684.765c-2.945,18.279-10.02,24.386-28.486,24.4c-21.008,0.029-42.029,0.043-63.037,0
	c-17.773-0.043-26.451-8.836-26.48-26.797c-0.043-30.826-0.159-61.651,0.101-92.491c0.058-6.252-1.617-8.721-8.244-8.504
	c-13.904,0.448-27.837,0.346-41.741,0.058c-6.035-0.13-7.999,2.021-7.941,8.085c0.245,30.551,0.144,61.117,0.101,91.668
	c-0.029,20.286-7.854,27.967-28.4,27.981c-21.007,0.029-42.029,0.072-63.037-0.014c-17.037-0.072-25.671-8.677-25.743-25.7
	c-0.087-21.556-0.014-43.098-0.014-64.654c0-2.989-0.289-6.035,1.574-8.692c3.263,0.606,6.526,1.213,9.789,1.819
	c0.26,3.032,0.534,6.078,0.794,9.11c-0.159,20.69-0.419,41.38-0.462,62.055c-0.014,10.886,3.364,14.207,14.164,14.25
	c21.802,0.072,43.603,0.058,65.405,0c10.525-0.029,14.323-3.566,14.352-14.193c0.115-37.857,0.014-75.714-0.014-113.57l-0.087,0.115
	c14.38-0.029,28.775-0.26,43.156-0.029c12.72,0.202,25.498-1.112,38.174,0.837l0.087-0.606c0,0-0.621-0.072-0.606-0.072
	c0.635,9.919-0.91,19.896,0.938,29.771c-0.404,3.263-0.823,6.512-1.227,9.775c1.169,7.883-0.996,15.925,1.198,23.751
	c-0.866,11.435-0.852,22.87-0.014,34.305c-1.761,6.338-1.227,12.85-0.606,19.188c0.65,6.598,4.736,10.728,11.825,10.785
	c3.48,0.029,6.959-0.289,10.439-0.448c20.704,0.664,41.423,0.809,62.127-0.072c9.24-2.339,10.453-4.779,9.443-19.058
	c-0.014-11.031-0.029-22.062-0.043-33.107c0.563-7.724,0.794-15.434-0.058-23.159c0.014-37.005,0.043-73.996,0.058-111.001
	c0.231-11.421,0.462-22.856,0.707-34.276c3.855-1.184,7.104-6.988,10.338-5.01c3.552,2.18,1.372,8.028,1.386,12.244
	C632.837,550.591,632.809,617.685,632.809,684.765z"/>
<path fill="#0297BF" d="M351.236,611.925c-3.263-0.606-6.526-1.213-9.775-1.819c-2.57-2.902-2.512-6.454-2.512-10.006
	c0.014-35.864,0-71.714,0.014-107.579c0-2.989-0.159-6.021,1.819-8.591c2.989,4.028,5.977,8.057,8.981,12.085
	c0.736-0.101,1.487-0.217,2.223-0.318c0-19.679,0-39.373,0-59.052c6.497-7.941,15.276-9.183,24.733-8.417
	c5.934,0.087,11.868,0.159,17.802,0.245c8.62,2.426,17.355,3.927,26.364,3.09c8.028,1.083,16.055,2.166,24.083,3.263
	c1.227,9.197,1.227,18.394-0.014,27.606c-29.959,29.728-59.904,59.485-89.921,89.156c-3.09,3.046-3.249,6.642-3.277,10.511
	C351.611,578.702,351.409,595.306,351.236,611.925z"/>
<path fill="#0B98BE" d="M1353.662,528.169c-2.498-14.785-3.162-29.569,0.419-44.296c8.273-10.41,11.796-21.816,11.247-35.503
	c-1.011-25.079-0.303-50.23-0.274-75.338c0.014-12.258,3.711-15.868,16.228-15.911c22.119-0.072,44.239-0.087,66.358-0.116
	c-0.115,0.52-0.346,0.982-0.693,1.372c-11.32-0.101-22.625-0.245-33.944-0.289c-13.918-0.043-13.918,0-14.496,14.149
	c-1.242,7.031-1.328,14.106-0.823,21.21c-3.898,10.28-3.61,20.95-2.974,31.663c-2.714,6.338-3.725,12.951-3.321,19.809
	c-0.967,10.858-1.935,21.715-2.902,32.572c-0.996,7.132-1.126,14.308-0.78,21.484c-3.797,10.121-3.422,20.632-2.888,31.158
	c-2.714,6.382-3.653,13.038-3.22,19.925c-1.039,10.829-2.065,21.672-3.104,32.5c-0.332,7.219-0.664,14.438-0.996,21.643
	c-4.678,11.767-2.339,24.083-2.83,36.168c-4.519,8.028-3.321,16.662-2.613,25.223c-2.815,8.663-3.191,17.745-4.389,26.667
	c-3.609-2.888-2.527-6.988-2.541-10.67c-0.072-47.473-0.058-94.96-0.072-142.432C1365.055,527.981,1365.04,527.981,1353.662,528.169
	z"/>
<path fill="#0297BF" d="M744.675,618.754c-3.48-2.31-6.959-4.635-10.424-6.945c-1.213-3.35-1.834-6.786-1.834-10.381
	c0.029-38.362,0.014-76.71,0.029-115.072c0-3.263-0.173-6.584,2.339-9.226c5.169-2.758,12.215-3.841,11.132-12.272
	c0.866,0.404,1.718,1.848,2.685,0.578c4.173-5.602,7.753-3.682,12.013,0.202c8.793,8.042,18.206,15.42,26.855,23.592
	c4.057,3.826,6.757,3.97,10.785,0.245c8.952-8.273,18.279-16.142,27.389-24.242c2.714-2.411,5.357-4.692,9.356-3.523
	c0.693,1.213,1.386,2.426,2.079,3.653c-1.256,6.252,2.917,13.37-3.046,18.856c-4.404-0.549-7.017,2.469-9.861,4.967
	c-8.403,7.392-16.922,14.626-25.036,22.307c-4.303,4.072-7.291,4.952-12.07,0.245c-8.331-8.215-17.485-15.593-26.306-23.289
	c-6.411-5.588-13.89-3.653-14.9,4.635c-1.169,9.544-1.025,19.318,0.173,29.382c9.096-5.126,9.168-5.126,16.589,1.588
	c1.819,1.646,3.667,3.277,5.371,5.039c3.292,3.422,10.424,6.165,8.836,10.497c-2.108,5.775-9.601,2.685-14.77,3.451
	c-0.794,0.115-1.646,0.014-2.44-0.13c-11.969-2.007-14.077-0.115-14.25,12.041C745.036,576.234,746.249,597.501,744.675,618.754z"/>
<path fill="#E5EDE9" d="M1447.641,356.976c-22.119,0.043-44.239,0.043-66.358,0.13c-12.518,0.043-16.2,3.667-16.229,15.911
	c-0.043,25.122-0.736,50.274,0.274,75.338c0.549,13.687-2.974,25.094-11.247,35.503c-0.188-30.291-0.375-60.597-0.534-90.888
	c-0.043-8.186-0.188-16.387,0.087-24.574c0.433-13.11,9.096-22.307,22.264-22.509c24.299-0.39,48.613-0.361,72.913,0.014
	c12.128,0.188,21.614,8.389,21.816,20.242c0.635,35.46,1.242,70.935-0.289,106.395c-3.35-4.765-6.685-9.529-10.034-14.294
	c-0.491-7.667-0.982-15.348-1.458-23.014c0.939-8.158,2.252-16.315-0.736-24.343c2.599-10.598,1.487-21.267,0.621-31.923
	C1461.428,364.556,1458.874,359.502,1447.641,356.976z"/>
<path fill="#E8EFE8" d="M1469.847,533.872c2.556,11.594,0.679,23.332,1.141,34.998c0.274,7.075,0.635,14.236-0.101,21.253
	c-0.91,8.677,2.729,10.468,10.67,10.309c23.722-0.462,47.444-0.202,71.18-0.159c19.694,0.029,27.664,8.071,27.707,27.909
	c0.043,16.907,0,33.814,0,50.707c0,20.213-3.638,25.238-22.625,31.201c-2.31-4.115-4.62-8.23-6.93-12.33
	c13.976-0.924,17.542-2.917,17.687-11.709c0.318-20.964,0.231-41.957,0.015-62.921c-0.072-7.089-4.158-11.132-11.392-11.146
	c-12.792-0.029-25.599,0.188-38.391,0.318c-4.173-0.014-8.36-0.043-12.547-0.058c-2.426,0.087-4.837,0.188-7.262,0.274
	c-10.785-0.404-21.571-1.328-32.342,0.144c-4.23-0.462-8.057-1.386-7.898-6.887c1.776-7.667,0.866-15.406,0.549-23.115
	c-0.072-11.06,0.967-22.134-0.578-33.164c0.491-5.241,0.982-10.468,1.487-15.709
	C1463.436,533.829,1466.641,533.858,1469.847,533.872z"/>
<path fill="#E1EEEA" d="M1353.662,528.169c11.377-0.188,11.392-0.188,11.392,11.002c0.015,47.473-0.014,94.96,0.072,142.432
	c0,3.682-1.083,7.782,2.541,10.67c0.578,0.65,1.141,1.299,1.718,1.935c0.996,1.891,2.772,2.671,4.707,2.714
	c26.552,0.52,53.089,0.996,79.641-0.087c2.541,0.346,5.082,0.679,7.623,1.025c-2.18,3.985-4.375,7.984-6.555,11.969
	c-25.065-1.487-50.144-0.303-75.223-0.606c-6.757-0.072-13.009-1.112-18.221-5.804c-5.429-4.866-7.825-10.93-7.811-18.163
	C1353.604,632.889,1353.62,580.522,1353.662,528.169z"/>
<path fill="#353D50" d="M1454.787,709.83c2.18-3.985,4.375-7.984,6.555-11.969c11.522-0.289,23.029-0.578,34.551-0.866
	c4.158,0.462,8.316,0.78,12.431-0.39c14.149,1.92,28.4-0.245,42.564,1.169c2.31,4.115,4.62,8.23,6.93,12.33
	C1523.469,710.017,1489.121,709.916,1454.787,709.83z"/>
<path fill="#E25148" d="M632.809,684.765c0-67.08,0.029-134.174-0.072-201.253c0-4.202,2.18-10.063-1.386-12.244
	c-3.234-1.978-6.483,3.826-10.338,5.01c-0.116-6.382-0.26-12.778-0.347-19.159c-0.043-2.7,0.087-5.429-3.508-6.021
	c6.165-9.11,3.046-19.246,3.205-29.006c0.621-4.866-1.112-12.157,8.36-6.829c4.375,2.454,3.999-1.805,4.014-4.331
	c0.072-13.904,0.043-27.793,0.043-41.611c0.072-0.375,0.332-0.924,0.173-1.271c-0.318-0.693-0.953-0.549-0.953,0.289
	c0.043,15.535-0.419,31.114,0.375,46.621c0.967,18.798,1.357,37.554-0.072,56.338c-0.202,2.714-0.462,5.443-0.462,8.158
	c-0.029,66.877-0.014,133.755-0.014,200.618c0,1.632,0,3.277,0.029,4.909c0,0.26,0.072,0.707,0.231,0.751
	C633.184,686.137,633.141,685.545,632.809,684.765z"/>
<path fill="#0598C0" d="M1469.847,533.872c-3.205-0.014-6.425-0.043-9.63-0.058c-0.289-2.469-0.563-4.923-0.852-7.392
	c0.606-11.348,0.707-22.697-0.072-34.06c0.087-7.493,0.159-14.987,0.245-22.48c0.26-3.884,0.505-7.753,0.765-11.637
	c3.335,4.765,6.685,9.529,10.035,14.294C1470.165,492.983,1470.005,513.428,1469.847,533.872z"/>
<path fill="#204F72" d="M1046.318,551.068c-5.053-3.292-11.334-2.671-16.604-5.241c-3.754-3.451-7.465-6.959-11.291-10.338
	c-13.557-11.984-13.572-11.969-26.682,1.169c-10.367-2.238-20.762-4.288-31.071-6.771c-8.764-2.108-3.451-8.663-3.826-13.413
	c1.227,0.578,2.873,0.823,3.61,1.776c4.793,6.324,8.88,4.028,13.586-0.332c8.908-8.244,18.293-15.983,27.274-24.169
	c3.278-2.989,5.544-2.888,8.778,0.116c9.096,8.446,18.582,16.474,27.75,24.848c4.36,3.985,7.609,5.154,12.648,0.144
	c8.778-8.75,18.712-16.33,27.793-24.79c3.609-3.364,5.862-3.321,9.443-0.029c9.731,8.952,19.997,17.326,29.685,26.306
	c3.48,3.234,5.848,3.292,8.62-0.26c6.05-1.242,6.107-7.291,8.923-11.132c8.504-1.198,13.326-8.1,18.813-13.298
	c5.616-5.328,9.038-4.216,13.861,0.274c8.475,7.898,17.615,15.102,25.917,23.173c4.62,4.49,7.436,3.725,11.709-0.361
	c8.778-8.36,18.308-15.94,27.187-24.227c3.97-3.696,6.8-3.927,10.843-0.116c8.822,8.316,18.221,16.026,27.028,24.357
	c4.548,4.303,7.912,4.851,12.662,0.087c4.88-4.895,9.457-10.424,16.171-13.168c0.809,10.309,2.686,20.531,2.353,30.941
	c-6.136,5.241-12.619,10.15-18.307,15.839c-4.62,4.606-8.057,4.75-12.807,0.245c-8.778-8.331-18.149-16.041-27.028-24.271
	c-3.869-3.581-6.541-3.913-10.612,0.13c-7.017,6.988-14.814,13.211-22.278,19.766c-2.455,0.953-3.032,3.595-4.707,5.241
	c-5.371,4.23-9.529,2.44-14.092-1.92c-8.591-8.201-17.802-15.766-26.566-23.794c-3.422-3.133-6.122-3.018-9.515,0.043
	c-9.601,8.692-19.621,16.95-29.035,25.83c-3.711,3.494-6.021,3.234-9.515,0.058c-9.183-8.374-18.798-16.286-27.923-24.718
	c-4.245-3.913-7.609-4.274-11.897-0.231c-8.403,7.912-17.08,15.521-25.628,23.26C1049.84,551.761,1048.079,551.414,1046.318,551.068
	z"/>
<path fill="#ED5145" d="M1157.405,447.777c6.078-20.083,14.741-39.2,21.946-58.864c2.714-7.407,5.703-14.727,8.432-22.134
	c2.325-6.324,6.512-9.789,13.456-9.775c24.285,0.043,48.57-0.014,72.84,0.058c6.367,0.014,11.507,2.469,12.46,9.327
	c2.252,16.459,3.797,32.991,4.173,49.624c-3.191,1.487-6.584,2.166-9.977,3.003c-8.028,1.992-16.431,2.714-23.982,6.512
	c-2.44,0.13-4.952-0.087-7.291,0.448c-14.453,3.35-28.847,6.858-43.271,10.323c-3.797,1.141-7.594,2.267-11.406,3.407
	c-6.353,2.613-13.861,0.953-19.737,5.313C1168.797,443.59,1163.569,448.672,1157.405,447.777z"/>
<path fill="#F9AF1A" d="M1305.916,590.195c0.808,2.873,2.151,5.717,2.339,8.634c1.675,27.432,4.534,54.764,7.075,82.124
	c1.198,12.879-2.743,16.474-15.824,16.488c-20.444,0.029-40.889,0.029-61.333,0.014c-13.803,0-16.994-3.133-17.514-17.181
	c-0.115-2.989-0.115-5.992-0.173-8.995c10.063-7.176,17.615-16.979,26.508-25.382
	C1266.659,627.374,1284.172,606.539,1305.916,590.195z"/>
<path fill="#1F5074" d="M1305.916,590.195c-21.744,16.344-39.257,37.178-58.922,55.717c-8.908,8.389-16.445,18.192-26.508,25.382
	c-2.743-33.987-5.486-67.975-8.23-101.962c6.916-5.977,14.106-11.666,20.618-18.062c4.115-4.043,6.844-3.335,10.67,0.159
	c9.327,8.519,19.188,16.488,28.4,25.137c3.638,3.422,5.876,3.379,9.399,0.087c7.075-6.613,14.539-12.792,21.83-19.145
	C1305.641,568.278,1306.422,579.179,1305.916,590.195z M1258.27,599.147c-5.458-5.097-9.082-8.634-12.864-11.969
	c-7.378-6.497-8.634-6.093-15.766,1.126c-3.234,3.277-2.036,4.664,1.155,5.487C1239.052,595.913,1247.211,598.858,1258.27,599.147z"
	/>
<path fill="#0598C0" d="M1042.391,474.791c-16.792-27.461-39.647-48.368-68.682-62.185c-6.136-2.917-7.811-6.194-6.901-12.59
	c1.386-9.702,1.935-19.549,2.743-29.338c0.332-3.97,2.151-5.429,5.92-3.913c48.122,19.188,85.517,50.418,109.066,97.169
	c-2.021,0.924-3.812,2.108-4.88,4.144l0.202-0.029c-3.581-0.419-7.003,0.318-10.482,1.097
	C1060.41,471.124,1051.675,474.271,1042.391,474.791z"/>
<path fill="#ED5145" d="M1175.28,643.963c-4.967,14.64-9.847,29.295-14.915,43.906c-1.675,4.837-5.414,7.566-10.525,7.623
	c-14.409,0.13-28.833,0.144-43.242-0.058c-4.736-0.058-8.533-2.7-10.006-7.161c-6.656-20.083-14.828-39.647-20.401-60.092
	c23.866-1.401,47.213,2.743,70.386,7.378C1156.235,637.466,1166.37,638.91,1175.28,643.963z"/>
<path fill="#204F72" d="M1157.405,447.777c6.165,0.881,11.392-4.202,17.643-2.743c6.699,6.208,13.326,12.503,20.127,18.596
	c3.263,2.931,6.064,1.761,9.168-1.054c9.385-8.518,19.289-16.474,28.573-25.094c3.609-3.35,6.223-3.566,9.702-0.361
	c6.136,5.645,12.374,11.19,18.625,16.705c14.51,12.836,14.525,12.821,29.526,0.91c1.054-0.837,2.05-1.718,3.075-2.584
	c2.368,10.497,2.743,21.181,3.119,31.879c-5.443,3.133-9.832,7.623-14.12,12.041c-4.202,4.346-7.45,4.736-12.027,0.39
	c-8.215-7.811-17.254-14.77-25.324-22.726c-5.414-5.342-9.168-6.353-15.03-0.303c-8.085,8.302-17.427,15.362-25.96,23.26
	c-3.913,3.624-6.815,3.451-10.655-0.116c-7.306-6.815-15.088-13.11-22.495-19.838c-9.919-8.995-9.832-9.082-20.632-1.819
	c-2.267-0.881-1.848-3.018-2.252-4.779C1151.052,462.533,1153.608,454.91,1157.405,447.777z"/>
<path fill="#ED5145" d="M1046.318,551.068c1.761,0.346,3.523,0.693,5.255,1.04c7.234,1.372,14.481,2.758,21.744,4.144
	c5.443,3.869,12.503,2.296,18.163,5.4c1.343,3.393,3.884,5.847,6.425,8.316c24.935,24.285,54.75,37.395,89.531,39.171
	c-2.05,7.898-4.404,15.694-8.114,23c-34.883-11.305-70.473-17.961-107.319-16.344c-6.497-13.5-10.063-28.068-15.449-41.972
	c-1.401-3.638-1.675-8.316-7.681-7.609c-3.162,0.375-3.191-2.281-3.104-4.534C1045.914,558.143,1046.13,554.605,1046.318,551.068z"
	/>
<path fill="#ECAA1E" d="M1187.437,609.124c-34.781-1.761-64.596-14.886-89.531-39.156c-2.541-2.469-5.097-4.923-6.425-8.316
	c2.05-0.202,4.187,1.429,6.18-0.303c-9.977-15.738-14.972-16.777-24.357-5.111c-7.262-1.386-14.51-2.772-21.744-4.144
	c8.591-7.724,17.268-15.333,25.657-23.245c4.303-4.043,7.667-3.696,11.897,0.231c9.125,8.432,18.741,16.344,27.923,24.718
	c3.494,3.176,5.804,3.451,9.515-0.058c9.414-8.894,19.434-17.138,29.035-25.83c3.393-3.061,6.078-3.176,9.515-0.043
	c8.764,8.028,17.975,15.593,26.566,23.794c4.562,4.346,8.721,6.151,14.048,1.949c-0.419,3.133-0.794,6.223-1.169,9.313
	c-2.31,5.4-4.62,10.814-6.93,16.214c-10.872-9.529-21.657-19.174-32.731-28.443c-1.588-1.328-3.249-5.357-7.118-1.516
	c-7.19,7.161-15.016,13.673-22.596,20.459c-7.234,1.877-13.788-3.552-21.571-2.743c10.15,15.059,50.043,31.071,77.388,31.677
	C1191.594,602.699,1188.953,605.731,1187.437,609.124z"/>
<path fill="#ECAA1E" d="M1150.764,474.935c10.785-7.277,10.713-7.19,20.632,1.819c7.392,6.714,15.189,13.009,22.495,19.838
	c3.826,3.566,6.728,3.754,10.655,0.115c8.533-7.898,17.875-14.943,25.96-23.26c5.876-6.035,9.616-5.039,15.03,0.303
	c8.071,7.955,17.109,14.915,25.324,22.726c4.577,4.346,7.825,3.942,12.027-0.39c4.288-4.433,8.677-8.908,14.12-12.041
	c2.613,7.031,2.021,14.38,2.151,21.657c-6.714,2.743-11.291,8.273-16.171,13.168c-4.75,4.75-8.114,4.202-12.662-0.087
	c-8.807-8.331-18.206-16.041-27.028-24.357c-4.043-3.812-6.873-3.581-10.843,0.116c-8.88,8.273-18.394,15.853-27.187,24.227
	c-4.274,4.072-7.104,4.837-11.709,0.361c-8.302-8.071-17.427-15.276-25.917-23.173c-4.822-4.49-8.244-5.588-13.861-0.274
	c-5.472,5.183-10.309,12.085-18.813,13.298c0.159-2.859,0.303-5.717,0.448-8.562c4.346-5.92,5.559-13.24,8.836-19.636
	c-0.115,0.13-0.231,0.274-0.361,0.404c0.39-0.332,0.838-0.635,1.17-1.025C1146.75,478.17,1149.926,477.838,1150.764,474.935z"/>
<path fill="#ECAA1E" d="M1126.031,520.098c-2.772,3.552-5.14,3.494-8.62,0.26c-9.688-8.995-19.953-17.355-29.685-26.306
	c-3.581-3.292-5.847-3.335-9.443,0.029c-9.082,8.461-19.015,16.041-27.793,24.79c-5.039,5.024-8.287,3.841-12.648-0.144
	c-9.168-8.389-18.654-16.416-27.765-24.862c-3.234-2.989-5.501-3.104-8.778-0.116c-8.966,8.201-18.351,15.925-27.274,24.184
	c-4.721,4.36-8.807,6.656-13.586,0.332c-0.722-0.953-2.382-1.198-3.61-1.776c0.606-7.233,1.213-14.481,1.819-21.715
	c3.898,1.92,7.551,5.876,12.301,2.151c15.333-12.027,34.449-11.522,52.093-15.868c4.88,7.262,12.272,11.897,18.524,17.716
	c2.397,2.238,4.028,1.169,6.165-0.751c6.829-6.122,14.265-11.623,20.791-18.048c3.884-3.826,9.515-6.136,11.348-11.94l-0.202,0.029
	c4.144-0.404,6.873,2.036,9.746,4.519c8.591,7.421,16.156,16.084,26.263,21.643l-0.087-0.13c0.188,1.834,1.097,2.931,3.032,2.989
	C1120.155,505.068,1126.811,511.377,1126.031,520.098z M970.315,495.972c-0.101,0.159-0.318,0.361-0.289,0.476
	c0.231,0.722,0.606,0.765,0.967,0.101c0.058-0.101-0.072-0.39-0.202-0.505C970.705,495.957,970.488,496.001,970.315,495.972z"/>
<path fill="#0B98BE" d="M1096.938,462.23c-16.416-34.262-41.134-61.304-72.205-82.774c-9.428-6.512-19.39-12.128-29.815-16.936
	c-2.339-1.083-5.082-1.819-6.959-5.515c16.878,0,33.107-0.014,49.335,0c31.894,0.043,26.739-2.584,37.481,24.819
	c9.356,23.852,18.452,47.79,27.591,71.714c0.852,2.238,2.195,4.461,1.646,7.046C1101.66,461.133,1099.306,461.681,1096.938,462.23z"
	/>
<path fill="#0B98BE" d="M1023.043,481.057c-17.643,4.346-36.76,3.841-52.093,15.853c-4.75,3.725-8.403-0.231-12.301-2.151
	c2.007-22.74,4.014-45.48,5.992-68.235c0.491-5.674,3.321-4.115,6.598-2.44c22.495,11.377,40.889,27.505,55.63,47.877
	c1.747,2.411,3.104,5.126,5.948,6.526C1029.569,479.339,1026.307,480.191,1023.043,481.057z"/>
<path fill="#ECAA1E" d="M1303.172,557.507c-7.306,6.353-14.77,12.547-21.831,19.145c-3.523,3.292-5.761,3.321-9.399-0.087
	c-9.212-8.648-19.058-16.618-28.4-25.137c-3.826-3.494-6.541-4.201-10.67-0.159c-6.512,6.382-13.716,12.07-20.618,18.062
	c-0.592-3.249-1.184-6.483-1.761-9.731c0-3.754,0-7.508-0.015-11.262c7.464-6.541,15.247-12.778,22.278-19.766
	c4.072-4.043,6.743-3.711,10.612-0.13c8.879,8.23,18.25,15.94,27.028,24.271c4.75,4.505,8.186,4.36,12.807-0.245
	c5.689-5.689,12.171-10.598,18.308-15.839C1303.475,543.473,1302.97,550.519,1303.172,557.507z"/>
<path fill="#ECAA1E" d="M1293.875,452.152c-1.025,0.866-2.036,1.761-3.075,2.584c-15.001,11.911-15.016,11.926-29.526-0.91
	c-6.252-5.53-12.489-11.06-18.625-16.705c-3.48-3.205-6.093-2.989-9.702,0.361c-9.284,8.62-19.188,16.575-28.573,25.094
	c-3.104,2.815-5.905,3.985-9.168,1.054c-6.8-6.093-13.427-12.388-20.127-18.596c5.891-4.36,13.384-2.7,19.737-5.313
	c6.425,7.652,8.432,0.52,11.406-3.407c14.424-3.465,28.833-6.974,43.271-10.323c2.339-0.534,4.851-0.318,7.291-0.448
	c5.14,6.916,11.348,13.673,19.116,16.257c6.815,2.267,9.861-7.753,16.041-10.121
	C1293.267,438.436,1294.292,445.222,1293.875,452.152z"/>
<path fill="#F9AF1A" d="M1072.004,615.794c36.846-1.617,72.436,5.039,107.319,16.344c-1.169,4.014-1.112,8.446-4.043,11.839
	c-8.894-5.053-19.03-6.497-28.718-8.432c-23.173-4.635-46.52-8.778-70.386-7.378
	C1073.202,624.572,1072.754,620.126,1072.004,615.794z"/>
<path fill="#204F72" d="M1135.185,569.65c7.566-6.786,15.406-13.298,22.596-20.459c3.855-3.855,5.53,0.188,7.118,1.516
	c11.089,9.284,21.859,18.928,32.731,28.443c-0.751,2.397-1.487,4.793-2.238,7.19c-13.225-4.793-27.259-6.396-40.643-10.482
	C1148.208,573.866,1140.816,574.472,1135.185,569.65z"/>
<path fill="#ED5145" d="M1135.185,569.65c5.631,4.822,13.023,4.23,19.564,6.223c13.384,4.072,27.418,5.689,40.643,10.482
	c-0.635,4.375-1.935,8.533-4.389,12.258c-27.346-0.621-67.224-16.618-77.388-31.677
	C1121.396,566.098,1127.952,571.527,1135.185,569.65z"/>
<path fill="#204F72" d="M1023.043,481.057c3.263-0.852,6.526-1.718,9.775-2.57c3.018-1.646,6.901-1.112,9.573-3.696
	c9.284-0.52,18.033-3.653,26.999-5.66c3.48-0.78,6.901-1.516,10.482-1.097c-1.819,5.804-7.45,8.114-11.348,11.94
	c-6.526,6.425-13.962,11.911-20.791,18.048c-2.137,1.92-3.768,2.989-6.165,0.751
	C1035.316,492.954,1027.923,488.305,1023.043,481.057z"/>
<path fill="#204F72" d="M1291.911,431.679c-6.165,2.368-9.226,12.388-16.041,10.121c-7.768-2.584-13.991-9.327-19.116-16.257
	c7.537-3.783,15.954-4.505,23.982-6.512c3.407-0.852,6.8-1.516,9.977-3.003C1291.796,421.197,1292.776,426.366,1291.911,431.679z"/>
<path fill="#204F72" d="M1096.938,462.23c2.368-0.549,4.721-1.097,7.089-1.646c4.014,9.226,8.028,18.438,12.041,27.649
	c-0.13,2.007-0.26,3.999-0.375,6.006c-10.107-5.573-17.687-14.222-26.263-21.643c-2.859-2.483-5.602-4.923-9.746-4.519
	c1.068-2.036,2.859-3.22,4.88-4.144C1089.083,466.273,1092.91,463.457,1096.938,462.23z"/>
<path fill="#ECAA1E" d="M991.727,536.659c13.11-13.124,13.124-13.153,26.682-1.169c3.826,3.378,7.537,6.887,11.291,10.338
	C1016.777,543.892,1004.042,541.163,991.727,536.659z"/>
<path fill="#E25148" d="M1115.693,494.239c0.13-2.007,0.26-3.999,0.375-6.006c6.439,4.057,12.893,8.114,19.333,12.171
	c-0.144,2.859-0.303,5.718-0.448,8.562c-2.815,3.841-2.873,9.89-8.923,11.132c0.78-8.706-5.876-15.03-7.392-23
	c-0.361-1.66-0.895-3.133-3.032-2.989L1115.693,494.239z"/>
<path fill="#E8EFE8" d="M1210.479,548.339c0,3.754,0,7.508,0.015,11.262c-4.591-3.523-2.686,4.447-5.92,3.335
	c0.375-3.09,0.751-6.18,1.17-9.313C1207.448,551.92,1208.01,549.292,1210.479,548.339z"/>
<path fill="#3967B1" d="M1150.764,474.935c-0.823,2.902-4.014,3.234-5.703,5.212c-0.332,0.39-0.78,0.679-1.17,1.025
	c0.116-0.13,0.231-0.26,0.361-0.404c1.473-3.523,1.473-7.638,4.274-10.612C1148.916,471.918,1148.483,474.055,1150.764,474.935z"/>
<path fill="#0297BF" d="M617.143,451.098c3.595,0.592,3.48,3.321,3.508,6.021c0.087,6.382,0.231,12.778,0.346,19.159
	c-0.231,11.421-0.462,22.856-0.707,34.276c-2.815,0.78-4.418,3.104-6.324,5.01c-22.004,21.989-43.906,44.065-66.026,65.939
	c-4.996,4.952-9.24,10.785-15.55,14.323c-4.707-2.05-2.989-6.324-3.537-9.89c-0.823-5.385,2.353-11.449-2.671-16.127l0.621,0.072
	l-0.087,0.606c-1.401-5.212-5.732-4.202-9.37-4.23c-19.318-0.087-38.622,0-57.94-0.087c-3.379-0.014-7.306,1.011-9.255-3.277h0.014
	c1.79-0.39,2.888-1.473,3.292-3.263h0.014c1.083-0.809,2.151-1.617,3.234-2.426c0.794-3.133,3.379-4.895,5.472-6.988
	c18.697-18.741,37.453-37.409,56.136-56.15c3.061-3.061,6.555-5.833,8.071-10.15c0,0-0.375,0.274-0.375,0.26
	c3.566-0.505,5.371-3.407,7.71-5.602c10.829-10.179,20.473-21.571,32.009-31.013c12.489-0.433,24.761,1.689,37.106,3.032
	C607.585,451.344,612.335,452.037,617.143,451.098z"/>
<path fill="#194E78" d="M526.385,483.945c-1.516,4.317-5.01,7.089-8.071,10.15c-18.683,18.741-37.438,37.409-56.136,56.15
	c-2.094,2.094-4.678,3.855-5.472,6.988c-1.083,0.809-2.151,1.617-3.22,2.411h-0.014c-1.718,0.462-2.801,1.559-3.292,3.263h-0.014
	c-2.599,1.545-4.981,3.249-4.779,6.772l0.087-0.115c-3.22-0.375-4.837,2.036-6.728,3.927
	c-12.085,12.085-24.242,24.112-36.182,36.326c-3.364,3.451-7.003,5.154-11.81,6.237c-12.792,2.888-25.974,2.223-38.738,4.967
	c-0.26-3.032-0.534-6.078-0.794-9.11c0.173-16.618,0.375-33.222,0.505-49.841c0.029-3.869,0.188-7.465,3.277-10.511
	c30.017-29.67,59.962-59.427,89.921-89.156c0.217,5.14,0.621,10.28,0.563,15.42c-0.043,4.23,0.982,6.54,5.891,6.497
	C476.386,484.06,501.392,484.046,526.385,483.945z"/>
<path fill="#353D50" d="M617.143,451.098c-4.808,0.938-9.558,0.245-14.323-0.462c3.061-4.173,5.963-8.461,9.212-12.475
	c2.527-3.119,3.393-5.27-1.155-7.421c-9.876-4.664-19.246-10.266-28.082-16.705c-2.685-1.964-4.649-2.122-6.829,0.78
	c-7.205,9.587-14.611,19.03-19.52,30.089c-7.97-0.029-15.954,0.39-23.881-0.953c8.129,1.429,12.662-2.122,16.171-9.558
	c4.158-8.836,9.876-17.008,16.387-24.357c4.129-4.649,3.35-7.407-1.155-11.204c-11.074-9.356-20.473-20.372-28.963-32.11
	c-1.675-2.325-5.92-5.385-2.166-8.1c3.768-2.714,8.721-2.917,12.186,2.021c6.93,9.847,15.03,18.669,23.751,26.942
	c8.287,7.883,8.158,7.811,16.228,0.087c5.111-4.895,10.367-9.688,15.969-13.991c4.404-3.379,5.992-5.948,0.375-9.529
	c-1.978-1.256-4.072-2.787-4.808-5.342c10.41-5.154,26.884,0.693,24.271,13.803c-0.303,1.502,0.39,3.379-1.761,4.057
	c-11.969,3.783-19.116,13.875-28.14,21.484c-3.797,3.205-3.148,5.385,0.895,8.013c9.168,5.934,18.336,11.796,28.515,15.882
	C620.19,431.852,623.308,441.988,617.143,451.098z"/>
<path fill="#ED5145" d="M351.885,373.204c-0.736-12.114,2.743-16.084,14.525-16.127c21.527-0.087,43.055-0.072,64.582,0
	c10.598,0.043,15.03,4.202,14.785,14.9c-0.245,11.088,1.617,22.264-1.083,33.28C417.666,383.282,386.912,372.064,351.885,373.204z"
	/>
<path fill="#ED5145" d="M444.939,434.826c-8.028-1.083-16.055-2.166-24.083-3.263c-1.415-3.48-4.461-5.241-7.363-7.248
	c-18.553-12.807-39.546-16.575-61.521-16.777c-0.881-7.32-0.679-14.64-0.101-21.96c22.22-0.924,43.199,3.739,63.08,13.702
	c10.756,5.385,19.564,13.63,29.743,19.838C446.672,424.33,445.589,429.571,444.939,434.826z"/>
<path fill="#F9AF1A" d="M444.708,419.118c-10.179-6.208-18.986-14.453-29.743-19.838c-19.881-9.962-40.86-14.626-63.08-13.702
	c0-4.129,0-8.259,0-12.388c35.027-1.141,65.78,10.078,92.823,32.053C447.004,409.877,447.134,414.497,444.708,419.118z"/>
<path fill="#194E78" d="M532.564,443.966c7.912,1.343,15.911,0.91,23.881,0.953c3.09,0.895,6.194,1.79,9.284,2.686
	c-11.536,9.443-21.181,20.834-32.009,31.013c-2.339,2.195-4.144,5.097-7.71,5.602c0.188-11.695,0.419-23.404,0.549-35.114
	C526.601,444.947,527.208,441.757,532.564,443.966z"/>
<path fill="#ECAA1E" d="M351.987,407.538c21.975,0.202,42.968,3.97,61.521,16.777c2.902,2.007,5.949,3.768,7.363,7.248
	c-9.009,0.852-17.745-0.65-26.364-3.09c-0.78-2.007-2.527-2.584-4.375-3.234c-12.345-4.303-24.877-7.363-38.117-6.266
	C352.001,415.162,351.987,411.35,351.987,407.538z"/>
<path fill="#E25148" d="M352.001,418.973c13.225-1.083,25.758,1.964,38.117,6.266c1.848,0.65,3.595,1.227,4.375,3.234
	c-5.934-0.087-11.868-0.159-17.773-0.245c-0.982-3.422-3.97-2.223-6.107-2.368c-6.223-0.404-12.475-0.448-18.712-0.635
	C351.929,423.146,351.972,421.067,352.001,418.973z"/>
<path fill="#204F72" d="M351.885,425.225c6.237,0.188,12.489,0.231,18.712,0.635c2.151,0.144,5.126-1.054,6.107,2.368
	c-9.486-0.765-18.264,0.476-24.761,8.417C351.034,432.848,351.25,429.037,351.885,425.225z"/>
<path fill="#194E78" d="M744.675,618.754c1.574-21.253,0.361-42.535,0.679-63.788c0.188-12.171,2.296-14.048,14.25-12.041
	c0.809,0.13,1.646,0.245,2.44,0.13c5.169-0.765,12.662,2.325,14.77-3.451c1.574-4.331-5.559-7.075-8.836-10.497
	c-1.704-1.761-3.552-3.393-5.371-5.039c-7.421-6.714-7.493-6.714-16.589-1.588c-1.198-10.063-1.343-19.838-0.173-29.382
	c1.011-8.273,8.504-10.222,14.9-4.635c8.836,7.696,17.976,15.088,26.306,23.289c4.779,4.707,7.768,3.841,12.07-0.245
	c8.114-7.681,16.633-14.915,25.021-22.307c2.844-2.498,5.458-5.53,9.847-4.967c4.201,4.433,5.429,9.688,4.952,15.694
	c-0.375,4.606,0.014,9.269-0.115,13.889c-0.101,3.855,1.184,9.674-6.05,4.664c-1.935-1.343-3.682,0.664-5.024,1.805
	c-5.602,4.765-11.045,9.688-16.503,14.611c-1.776,1.603-2.368,3.595-1.271,5.891c-1.675,2.44-4.909,2.714-6.642,5.588
	c-2.238,3.682-0.895,6.382,1.011,8.836c1.776,2.296,4.577,4.1,7.753,3.061c3.119-1.025,5.472-2.931,6.078-6.743
	c0.924-5.833-3.249-7.999-6.858-10.699c5.111-2.18,10.583-2.353,15.983-2.989c11.565-1.357,11.565-1.372,11.565,10.554
	c0.014,24.256-0.058,48.498,0.029,72.754c0.072,21.787,0.318,43.56,0.491,65.347c-0.679,7.696-5.212,10.886-12.576,10.886
	c-22.87-0.014-45.74,0.115-68.596-0.043c-8.995-0.058-12.561-3.869-12.633-13.326c-0.144-18.235,0-36.471-0.072-54.706
	C745.484,625.771,744.964,622.262,744.675,618.754z M818.281,630.391c0.072-3.422-2.642-6.497-7.739-6.526
	c-4.967-0.014-8.302,3.292-8.259,8.056c0.043,4.75,3.494,8.057,8.374,7.999C815.177,639.877,818.093,637.119,818.281,630.391z
	 M761.611,672.753c0.173,5.255,3.003,8.042,8.057,8.085c5.198,0.043,8.085-3.306,8.056-8.129c-0.029-4.808-2.873-8.172-8.129-8.071
	C764.499,664.754,761.799,667.642,761.611,672.753z M761.64,592.159c0.505,4.201,3.119,7.176,8.331,6.829
	c5.01-0.318,8.057-3.393,7.768-8.36c-0.289-4.837-3.292-8.114-8.461-7.768C764.355,583.178,761.568,586.138,761.64,592.159z"/>
<path fill="#ED5145" d="M734.496,441.656c-18.452,2.325-36.962,1.054-55.443,0.664c-6.078-0.13-9.082-4.765-9.125-10.612
	c-0.144-20.979-0.188-41.957,0-62.936c0.072-7.508,4.62-11.652,11.955-11.652c43.055-0.014,86.095,0.202,129.149,0.332
	c-1.964,3.869-5.588,6.353-8.158,9.688c-6.757,8.706-16.994,14.323-21.729,24.776c-7.782,4.057-11.839,11.969-18.149,17.557
	c-8.331,9.731-18.813,17.557-25.339,28.862C734.886,437.815,735.247,440.255,734.496,441.656z"/>
<path fill="#0B98BE" d="M781.146,391.916c4.736-10.453,14.987-16.07,21.729-24.776c2.57-3.321,6.194-5.804,8.158-9.688
	c30.493-0.116,61.001-0.289,91.495-0.318c6.8,0,12.417,3.292,12.503,10.266c0.289,22.278,1.429,44.585-0.52,66.849
	c-2.512-7.724-5.992-9.313-11.103-3.335c-9.37,10.944-20.863,13.37-34.204,11.969c-4.028-0.419-8.158-0.26-12.229-0.014
	c-4.635,0.274-8.576-0.881-11.709-4.389c-1.906-1.935-3.956-3.768-5.703-5.833c-4.794-5.631-9.24-6.252-14.929-0.65
	c-7.551,7.436-16.099,13.861-23.707,21.239c-5.616,5.458-10.121,5.804-15.896,0.202c-7.999-7.768-16.719-14.77-24.906-22.365
	c-4.144-3.841-7.566-4.404-11.911-0.231c-3.075,2.974-6.151,6.266-10.569,7.493c6.526-11.305,17.023-19.131,25.353-28.862
	c7.999,8.908,17.326,16.373,26.277,24.242c3.537,3.104,6.483,0.78,9.313-1.718c8.778-7.782,17.831-15.261,26.335-23.303
	c4.851-4.591,8.302-5.27,13.485-0.144c8.316,8.23,17.629,15.449,26.234,23.419c4.043,3.754,7.262,3.841,11.218,0.072
	c4.736-4.505,9.399-9.313,14.857-12.792c7.335-4.692,10.626-15.954,22.264-13.947c1.502,0.26,1.357-2.079,1.372-3.35
	c0.029-8.461,0.347-16.95-0.188-25.368c-0.404-6.411-4.389-7.883-9.255-3.711c-9.717,8.345-19.405,16.748-28.761,25.498
	c-4.288,3.999-7.378,4.1-11.709,0.014c-9.11-8.591-18.798-16.589-28.01-25.094c-3.306-3.061-5.819-2.96-9.024-0.087
	c-9.154,8.172-18.64,15.983-27.591,24.357c-5.01,4.678-9.212,5.198-13.774-0.101C784.409,395.569,782.778,393.75,781.146,391.916z
	 M892.479,358.752c-15.579,0-29.483,0-45.466,0c7.739,7.176,14.034,13.052,20.401,18.856c1.964,1.79,4.014,1.299,5.833-0.404
	C879.369,371.515,886.357,366.707,892.479,358.752z"/>
<path fill="#194E78" d="M737.658,438.335c4.404-1.227,7.479-4.519,10.569-7.493c4.331-4.187,7.768-3.61,11.911,0.231
	c8.172,7.58,16.907,14.597,24.906,22.365c5.775,5.602,10.28,5.241,15.896-0.202c7.609-7.378,16.156-13.803,23.707-21.239
	c5.689-5.602,10.136-4.981,14.929,0.65c1.761,2.065,3.797,3.898,5.703,5.833c-1.632,1.545-4.23,1.964-5.082,4.389
	c0.072,0.549-0.101,0.982-0.52,1.314c-0.433,0.144-0.794,0.433-1.068,0.852c-3.436,5.082,0.592,11.782-3.61,16.705
	c-3.999-1.155-6.642,1.112-9.356,3.523c-9.11,8.1-18.438,15.969-27.389,24.242c-4.028,3.725-6.743,3.581-10.785-0.245
	c-8.663-8.172-18.062-15.564-26.855-23.592c-4.259-3.884-7.84-5.804-12.013-0.202c-0.953,1.285-1.819-0.159-2.685-0.578
	c-0.116-2.96-0.65-5.977-0.289-8.879c1.097-8.648-0.52-14.886-11.103-14.337C735.247,440.255,734.886,437.815,737.658,438.335z"/>
<path fill="#0B98BE" d="M838.595,445.02c0.274-0.419,0.621-0.693,1.068-0.852c0.043,80.262,0.087,160.509,0.116,240.771
	c0,0.52-0.245,1.054-0.375,1.559c-0.173-21.802-0.419-43.574-0.491-65.362c-0.087-24.256-0.014-48.498-0.029-72.754
	c0-11.926-0.014-11.911-11.565-10.554c-5.4,0.635-10.872,0.809-15.969,2.974c-0.462,0.332-0.924,0.332-1.343-0.043
	c-1.097-2.296-0.505-4.288,1.271-5.891c5.458-4.923,10.915-9.847,16.503-14.611c1.343-1.141,3.09-3.133,5.024-1.805
	c7.234,5.024,5.949-0.809,6.05-4.664c0.13-4.635-0.26-9.298,0.116-13.89c0.491-6.006-0.751-11.262-4.952-15.694
	c5.949-5.487,1.79-12.605,3.046-18.856C840.487,458.794,838.509,451.834,838.595,445.02z"/>
<path fill="#1F5074" d="M840.184,442.854c0.866-2.426,3.465-2.844,5.082-4.389c3.133,3.523,7.075,4.664,11.709,4.389
	c4.072-0.245,8.186-0.404,12.229,0.014c13.341,1.401,24.834-1.025,34.204-11.969c5.125-5.977,8.591-4.389,11.103,3.335
	c-1.848,7.335-7.58,8.663-13.846,8.49C880.495,442.219,860.339,442.016,840.184,442.854z"/>
<path fill="#0598C0" d="M352.03,621.035c12.763-2.729,25.945-2.079,38.738-4.967c4.793-1.083,8.432-2.787,11.81-6.237
	c11.94-12.229,24.097-24.242,36.182-36.326c1.891-1.891,3.494-4.303,6.728-3.927c0.029,37.857,0.13,75.714,0.014,113.57
	c-0.029,10.626-3.826,14.164-14.352,14.193c-21.802,0.058-43.603,0.072-65.405,0c-10.785-0.043-14.178-3.364-14.164-14.25
	C351.611,662.415,351.871,641.725,352.03,621.035z"/>
<path fill="#194E78" d="M532.42,595.841c6.309-3.537,10.554-9.385,15.55-14.323c22.119-21.874,44.022-43.95,66.026-65.939
	c1.906-1.906,3.508-4.23,6.324-5.01c-0.014,37.005-0.043,73.996-0.058,111.001c-10.901-6.439-19.65-15.535-28.905-23.938
	c-5.198-4.721-9.977-5.241-16.185-3.061c-9.082,3.176-14.366,10.915-21.239,16.705c-12.013,10.107-11.94,10.193-23.996,0.823
	c-1.271-0.982-2.671-1.805-3.999-2.714c0.404-3.263,0.823-6.512,1.227-9.775C529.258,598.829,531.193,597.833,532.42,595.841z"/>
<path fill="#1F5074" d="M527.107,667.425c-0.837-11.435-0.852-22.87,0.014-34.305c2.094,1.675,4.519,3.075,6.237,5.082
	c5.198,6.064,9.659,6.468,15.651,0.375c7.724-7.854,16.806-14.38,24.66-22.134c5.14-5.068,8.634-4.158,13.442,0.231
	c10.684,9.775,20.647,20.459,33.193,28.024c0.014,11.031,0.029,22.061,0.043,33.107c-4.404,0.332-6.613-3.09-9.385-5.515
	c-8.677-7.594-17.456-15.073-25.902-22.928c-3.696-3.422-6.569-3.379-10.15-0.101c-6.916,6.338-14.048,12.431-21.008,18.712
	c-11.883,10.713-11.839,10.742-24.704,0.664C528.565,668.147,527.8,667.829,527.107,667.425z"/>
<path fill="#E25148" d="M620.305,644.714c-12.561-7.566-22.524-18.25-33.193-28.024c-4.808-4.404-8.316-5.299-13.442-0.231
	c-7.854,7.753-16.936,14.265-24.66,22.134c-5.992,6.093-10.453,5.689-15.651-0.375c-1.718-2.007-4.129-3.407-6.237-5.082
	c-2.195-7.826-0.029-15.882-1.198-23.751c1.343,0.895,2.729,1.718,3.999,2.714c12.056,9.37,11.969,9.298,23.996-0.823
	c6.887-5.79,12.171-13.529,21.239-16.705c6.223-2.18,10.987-1.646,16.185,3.061c9.255,8.403,18.004,17.499,28.905,23.938
	C621.099,629.279,620.883,637.004,620.305,644.714z"/>
<path fill="#E25148" d="M527.107,667.425c0.707,0.404,1.458,0.736,2.094,1.227c12.85,10.092,12.821,10.063,24.704-0.664
	c6.959-6.281,14.106-12.373,21.008-18.712c3.566-3.277,6.454-3.321,10.15,0.101c8.446,7.84,17.225,15.333,25.902,22.928
	c2.772,2.426,4.981,5.847,9.385,5.515c1.011,14.279-0.202,16.719-9.457,19.058c-7.739-10.771-18.871-17.86-28.66-26.393
	c-1.761-1.545-2.989-1.559-4.75,0.115c-9.443,8.923-20.805,15.752-28.703,26.364c-3.48,0.159-6.959,0.476-10.439,0.448
	c-7.089-0.058-11.175-4.187-11.825-10.785C525.88,680.275,525.345,673.763,527.107,667.425z"/>
<path fill="#1F5074" d="M548.764,696.951c7.898-10.598,19.26-17.441,28.703-26.364c1.761-1.675,2.989-1.646,4.75-0.115
	c9.803,8.533,20.921,15.636,28.66,26.393C590.187,697.745,569.483,697.615,548.764,696.951z"/>
<path fill="#0598C0" d="M445.401,569.693c-0.202-3.523,2.18-5.227,4.779-6.772c1.949,4.288,5.862,3.263,9.255,3.277
	c19.318,0.072,38.622,0,57.94,0.087c3.638,0.014,7.97-0.996,9.37,4.23c-12.691-1.949-25.454-0.635-38.174-0.837
	C474.177,569.433,459.782,569.664,445.401,569.693z"/>
<path fill="#0598C0" d="M532.42,595.841c-1.227,1.992-3.148,3.003-5.255,3.754c-1.863-9.876-0.303-19.852-0.938-29.771
	c5.024,4.678,1.848,10.742,2.671,16.127C529.431,589.502,527.713,593.79,532.42,595.841z"/>
<path fill="#204F72" d="M1458.758,605.788c-0.159,5.501,3.667,6.425,7.898,6.887c5.718,7.594,14.395,12.056,20.502,19.246
	c-1.761,8.677-7.06,15.608-11.276,23.087c-4.923-4.1-10.092-7.955-14.712-12.373c-4.014-3.841-6.93-4.173-11.233-0.072
	c-9.11,8.706-19.029,16.575-28.154,25.267c-3.942,3.754-6.468,3.148-10.006-0.13c-9.269-8.547-18.712-16.936-28.241-25.209
	c-2.411-2.094-4.88-5.804-8.88-2.137c0.491-12.085-1.834-24.401,2.83-36.168c12.128,8.62,22.726,19.029,33.756,28.934
	c3.971,3.566,6.699,3.913,10.843,0.029c9.053-8.49,18.697-16.344,27.996-24.588C1452.666,606.294,1455.09,604.316,1458.758,605.788z
	"/>
<path fill="#204F72" d="M1458.729,549.523c1.545,11.031,0.505,22.105,0.578,33.164c-3.436-0.794-6.122,0.101-8.822,2.599
	c-7.883,7.32-16.055,14.308-24.112,21.441c-9.529,8.432-9.414,8.316-18.856,0.144c-9.544-8.259-18.322-17.427-29.035-24.299
	c1.039-10.829,2.065-21.672,3.104-32.5c10.107,8.764,20.343,17.384,30.233,26.378c3.74,3.407,6.194,3.667,10.063,0
	c9.356-8.865,19.174-17.225,28.891-25.685C1453.055,548.758,1455.467,545.769,1458.729,549.523z"/>
<path fill="#1F5074" d="M1459.292,492.377c0.78,11.348,0.678,22.697,0.072,34.045c-3.494-2.166-6.093-0.852-8.908,1.704
	c-9.544,8.648-19.506,16.835-28.876,25.657c-3.696,3.48-5.905,3.148-9.414-0.029c-8.937-8.071-18.206-15.781-27.36-23.635
	c-0.549-10.525-0.91-21.036,2.888-31.143c7.941,6.858,16.099,13.485,23.707,20.675c3.999,3.783,6.916,3.595,10.756,0.087
	c9.529-8.692,19.232-17.196,28.905-25.714C1453.431,491.929,1455.784,489.056,1459.292,492.377z"/>
<path fill="#204F72" d="M1460.302,458.245c-0.26,3.884-0.505,7.753-0.765,11.637c-3.624-2.83-6.367-0.722-9.038,1.632
	c-9.717,8.562-19.578,16.95-29.035,25.801c-3.653,3.422-5.977,3.061-9.414-0.101c-7.537-6.93-14.741-14.323-23.563-19.737
	c0.967-10.857,1.935-21.715,2.902-32.587c6.858,5.977,13.774,11.883,20.545,17.961c3.422,3.061,6.05,3.277,9.717-0.116
	c9.298-8.591,19.174-16.561,28.53-25.079c2.729-2.483,5.154-3.797,8.663-2.426C1459.322,442.897,1459.812,450.578,1460.302,458.245z
	"/>
<path fill="#ECAA1E" d="M1374.656,640.368c3.999-3.667,6.468,0.043,8.88,2.137c9.529,8.273,18.972,16.662,28.241,25.209
	c3.552,3.277,6.078,3.869,10.006,0.13c9.125-8.692,19.03-16.575,28.154-25.267c4.303-4.1,7.219-3.768,11.233,0.072
	c4.62,4.418,9.789,8.273,14.713,12.374c-2.44,5.284-4.129,11.074-9.63,14.294c-1.328-0.938-2.873-1.675-3.927-2.844
	c-4.765-5.342-8.562-4.779-13.659,0.346c-8.158,8.215-17.225,15.55-26.061,23.087c-2.353,2.007-4.49,5.053-8.432,3.812
	c-8.504-10.713-20.517-17.672-29.714-27.606c-4.303-4.635-8.071-5.616-12.431-0.52
	C1371.334,657.015,1370.136,648.395,1374.656,640.368z"/>
<path fill="#1F5074" d="M1458.714,378.951c0.866,10.67,1.964,21.325-0.621,31.923c-2.729-0.895-4.476,0.52-6.396,2.267
	c-9.37,8.533-19.058,16.719-28.27,25.426c-4.635,4.375-8.143,5.111-12.937,0.144c-4.808-4.981-10.482-9.125-15.781-13.63
	c-0.635-10.699-0.924-21.383,2.974-31.648c4.721,4.072,9.645,7.941,14.12,12.287c3.638,3.537,6.266,3.667,10.121,0.014
	c9.399-8.879,19.188-17.384,29.006-25.815C1452.998,378.142,1455.552,374.46,1458.714,378.951z"/>
<path fill="#ECAA1E" d="M1378.496,582.543c10.699,6.873,19.492,16.041,29.035,24.299c9.443,8.172,9.327,8.302,18.856-0.144
	c8.057-7.132,16.229-14.135,24.112-21.441c2.7-2.498,5.385-3.393,8.822-2.599c0.318,7.724,1.242,15.449-0.549,23.116
	c-3.667-1.487-6.107,0.505-8.677,2.786c-9.298,8.23-18.928,16.099-27.996,24.588c-4.144,3.884-6.873,3.537-10.843-0.029
	c-11.031-9.905-21.628-20.314-33.756-28.934C1377.833,596.981,1378.165,589.762,1378.496,582.543z"/>
<path fill="#ECAA1E" d="M1384.821,530.118c9.139,7.854,18.423,15.55,27.36,23.635c3.494,3.162,5.718,3.494,9.414,0.029
	c9.37-8.822,19.333-17.008,28.876-25.657c2.816-2.556,5.414-3.869,8.908-1.704c0.289,2.469,0.563,4.923,0.852,7.392
	c-0.491,5.241-0.982,10.468-1.487,15.709c-3.277-3.754-5.689-0.751-7.941,1.213c-9.717,8.461-19.535,16.82-28.891,25.685
	c-3.884,3.667-6.324,3.407-10.063,0c-9.89-8.995-20.141-17.615-30.234-26.378C1381.152,543.156,1382.105,536.5,1384.821,530.118z"/>
<path fill="#ECAA1E" d="M1388.488,477.477c8.822,5.429,16.026,12.807,23.563,19.737c3.436,3.162,5.761,3.523,9.414,0.101
	c9.443-8.851,19.318-17.239,29.035-25.801c2.671-2.353,5.414-4.461,9.038-1.632c-0.087,7.493-0.159,14.987-0.245,22.48
	c-3.508-3.321-5.847-0.433-8.215,1.646c-9.674,8.518-19.391,17.023-28.905,25.714c-3.84,3.508-6.757,3.682-10.756-0.087
	c-7.623-7.19-15.781-13.803-23.707-20.675C1387.362,491.785,1387.477,484.609,1388.488,477.477z"/>
<path fill="#ECAA1E" d="M1394.711,425.081c5.299,4.505,10.973,8.648,15.781,13.63c4.794,4.981,8.302,4.23,12.937-0.144
	c9.212-8.692,18.9-16.893,28.27-25.426c1.92-1.747,3.667-3.162,6.396-2.267c2.989,8.028,1.675,16.2,0.736,24.343
	c-3.508-1.372-5.934-0.058-8.663,2.426c-9.356,8.518-19.232,16.488-28.53,25.079c-3.667,3.393-6.309,3.191-9.717,0.116
	c-6.771-6.078-13.687-11.984-20.545-17.961C1390.985,438.046,1391.995,431.419,1394.711,425.081z"/>
<path fill="#ECAA1E" d="M1458.714,378.951c-3.162-4.505-5.718-0.823-7.797,0.967c-9.818,8.432-19.607,16.936-29.006,25.815
	c-3.855,3.638-6.483,3.523-10.121-0.014c-4.461-4.346-9.385-8.215-14.12-12.287c-0.52-7.104-0.419-14.178,0.808-21.21
	c4.028,3.148,8.49,5.891,11.998,9.544c4.476,4.664,7.941,4.866,12.633,0.26c6.136-6.021,13.038-11.247,19.232-17.21
	c1.805-1.733,5.732-2.483,4.591-6.468c0.346-0.404,0.578-0.852,0.693-1.372C1458.874,359.502,1461.428,364.556,1458.714,378.951z"/>
<path fill="#1F5074" d="M1372.057,665.591c4.375-5.097,8.143-4.129,12.431,0.52c9.197,9.933,21.21,16.893,29.714,27.606
	c-2.729,2.382-6.064,1.761-9.269,2.007c-11.911,0.938-23.679-1.502-35.547-1.516c-0.563-0.65-1.141-1.285-1.718-1.935
	C1368.866,683.336,1369.241,674.269,1372.057,665.591z"/>
<path fill="#204F72" d="M1446.948,358.362c1.141,3.985-2.787,4.736-4.591,6.468c-6.194,5.963-13.11,11.19-19.232,17.21
	c-4.692,4.606-8.158,4.404-12.633-0.26c-3.508-3.653-7.97-6.396-11.998-9.544c0.592-14.164,0.592-14.207,14.51-14.164
	C1424.323,358.102,1435.642,358.261,1446.948,358.362z"/>
<path fill="#1F5074" d="M838.595,445.02c-0.072,6.815,1.891,13.788-1.53,20.343c-0.693-1.213-1.386-2.426-2.079-3.638
	C839.188,456.801,835.159,450.102,838.595,445.02z"/>
<path fill="#ED5145" d="M1550.888,697.774c-14.164-1.415-28.414,0.751-42.564-1.169c0.404-3.234,0.361-6.613,1.271-9.688
	c7.176-24.372,9.731-49.292,9.212-74.602c12.792-0.115,25.599-0.332,38.391-0.318c7.234,0.014,11.319,4.057,11.392,11.146
	c0.217,20.979,0.303,41.957-0.014,62.922C1568.431,694.843,1564.864,696.85,1550.888,697.774z"/>
<path fill="#ED5145" d="M1466.266,669.316c5.501-3.22,7.19-9.009,9.63-14.294c4.201-7.479,9.5-14.424,11.262-23.087
	c6.815-4.707,7.681-13.066,11.839-19.39c2.426-0.087,4.837-0.188,7.262-0.274c-0.736,15.593-0.159,31.129-2.801,46.808
	c-2.151,12.749-6.945,24.935-7.58,37.929c-11.522,0.289-23.029,0.578-34.551,0.866c-2.541-0.346-5.082-0.679-7.623-1.025
	C1457.603,687.523,1465.558,680.073,1466.266,669.316z"/>
<path fill="#F9AF1A" d="M1495.879,696.994c0.635-12.994,5.429-25.18,7.58-37.929c2.642-15.665,2.05-31.201,2.801-46.809
	c4.187,0.014,8.36,0.043,12.547,0.058c0.52,25.31-2.036,50.23-9.212,74.602c-0.91,3.09-0.866,6.454-1.271,9.688
	C1504.209,697.774,1500.036,697.456,1495.879,696.994z"/>
<path fill="#ECAA1E" d="M1499.011,612.531c-4.158,6.338-5.024,14.684-11.839,19.39c-6.107-7.19-14.785-11.652-20.502-19.246
	C1477.441,611.203,1488.227,612.127,1499.011,612.531z"/>
<path fill="#204F72" d="M1466.266,669.316c-0.708,10.756-8.663,18.221-12.547,27.519c-26.537,1.097-53.089,0.606-79.641,0.087
	c-1.935-0.043-3.696-0.823-4.707-2.714c11.868,0.014,23.635,2.44,35.547,1.516c3.205-0.245,6.555,0.361,9.269-2.007
	c3.927,1.242,6.078-1.805,8.432-3.812c8.836-7.537,17.889-14.871,26.061-23.087c5.097-5.126,8.88-5.689,13.659-0.346
	C1463.392,667.642,1464.938,668.378,1466.266,669.316z"/>
<path fill="#353D50" d="M1206.192,436.313c-2.974,3.927-4.981,11.045-11.406,3.407
	C1198.597,438.58,1202.395,437.454,1206.192,436.313z"/>
<path fill="#ECAA1E" d="M1258.27,599.147c-11.06-0.289-19.217-3.234-27.49-5.357c-3.191-0.823-4.389-2.209-1.155-5.486
	c7.132-7.219,8.403-7.623,15.766-1.126C1249.188,590.513,1252.813,594.05,1258.27,599.147z"/>
<path fill="#353D50" d="M1073.302,556.251c9.385-11.666,14.38-10.626,24.357,5.111c-1.978,1.733-4.129,0.087-6.18,0.303
	C1085.807,558.532,1078.745,560.121,1073.302,556.251z"/>
<path fill="#204F72" d="M1115.607,494.109c2.137-0.144,2.671,1.328,3.032,2.989C1116.69,497.04,1115.78,495.943,1115.607,494.109z"
	/>
<path fill="#0B98BE" d="M970.315,495.972c0.173,0.014,0.39-0.029,0.491,0.072c0.13,0.116,0.26,0.404,0.202,0.505
	c-0.375,0.65-0.751,0.621-0.967-0.101C969.997,496.333,970.214,496.131,970.315,495.972z"/>
<path fill="#E8EFE8" d="M565.729,447.604c-3.09-0.895-6.194-1.79-9.284-2.686c4.909-11.06,12.316-20.502,19.52-30.089
	c2.18-2.902,4.144-2.743,6.829-0.78c8.836,6.439,18.206,12.041,28.082,16.705c4.548,2.151,3.682,4.303,1.155,7.421
	c-3.249,4.014-6.165,8.302-9.212,12.475C590.49,449.293,578.218,447.171,565.729,447.604z"/>
<path fill="#0598C0" d="M450.18,562.922c0.476-1.704,1.574-2.801,3.292-3.263C453.068,561.434,451.971,562.532,450.18,562.922z"/>
<path fill="#0598C0" d="M453.487,559.644c1.068-0.809,2.151-1.603,3.22-2.411C455.638,558.041,454.57,558.836,453.487,559.644z"/>
<path fill="#ECAA1E" d="M818.281,630.391c-0.188,6.728-3.119,9.486-7.623,9.529c-4.88,0.058-8.331-3.249-8.374-7.999
	c-0.043-4.765,3.277-8.071,8.259-8.056C815.639,623.894,818.353,626.969,818.281,630.391z"/>
<path fill="#ECAA1E" d="M809.994,540.773c0.419,0.361,0.881,0.375,1.343,0.043c3.595,2.714,7.768,4.88,6.844,10.699
	c-0.606,3.812-2.96,5.703-6.078,6.743c-3.176,1.054-5.977-0.751-7.753-3.061c-1.906-2.469-3.249-5.169-1.011-8.836
	C805.099,543.488,808.319,543.199,809.994,540.773z"/>
<path fill="#ECAA1E" d="M761.611,672.753c0.188-5.126,2.888-7.999,7.984-8.114c5.255-0.101,8.1,3.249,8.129,8.071
	c0.029,4.822-2.859,8.172-8.056,8.129C764.614,680.795,761.785,678.008,761.611,672.753z"/>
<path fill="#ECAA1E" d="M761.64,592.159c-0.072-6.021,2.714-8.981,7.638-9.313c5.169-0.346,8.172,2.931,8.461,7.768
	c0.289,4.981-2.758,8.042-7.768,8.36C764.773,599.335,762.145,596.36,761.64,592.159z"/>
<path fill="#194E78" d="M781.146,391.916c1.617,1.834,3.249,3.653,4.851,5.515c4.562,5.299,8.764,4.779,13.774,0.101
	c8.952-8.374,18.438-16.185,27.591-24.357c3.205-2.859,5.718-2.96,9.024,0.087c9.212,8.504,18.885,16.488,28.01,25.094
	c4.331,4.086,7.436,3.985,11.709-0.014c9.356-8.735,19.044-17.138,28.761-25.498c4.851-4.173,8.836-2.7,9.255,3.711
	c0.534,8.432,0.217,16.907,0.188,25.368c0,1.256,0.144,3.61-1.372,3.35c-11.637-2.007-14.915,9.255-22.264,13.947
	c-5.458,3.494-10.107,8.288-14.857,12.792c-3.956,3.768-7.176,3.667-11.219-0.072c-8.591-7.97-17.918-15.174-26.234-23.419
	c-5.183-5.126-8.634-4.433-13.485,0.144c-8.504,8.056-17.557,15.535-26.335,23.303c-2.815,2.498-5.775,4.822-9.313,1.718
	c-8.952-7.869-18.279-15.333-26.277-24.242C769.307,403.885,773.364,395.973,781.146,391.916z"/>
<path fill="#194E78" d="M892.479,358.752c-6.122,7.955-13.11,12.763-19.217,18.466c-1.819,1.704-3.869,2.18-5.833,0.404
	c-6.367-5.804-12.662-11.695-20.401-18.856C862.996,358.752,876.9,358.752,892.479,358.752z"/>
</svg>
